<svg xmlns="http://www.w3.org/2000/svg" width="46" height="46" viewBox="0 0 46 46">
  <g id="about" transform="translate(0 0)">
    <path id="Path_1" data-name="Path 1" d="M45.156,17.225A31.968,31.968,0,0,1,42.9,23a30.686,30.686,0,0,1,2.6,7.121c1.179,5.38.257,9.915-2.6,12.768A11.481,11.481,0,0,1,34.513,46a21.6,21.6,0,0,1-5.74-.844A32.032,32.032,0,0,1,23,42.9a28.341,28.341,0,0,1-9.355,2.968,18.981,18.981,0,0,1-2.159.128,11.465,11.465,0,0,1-8.382-3.1A11.215,11.215,0,0,1,.028,35.452a22.74,22.74,0,0,1,1.6-9.1,4.266,4.266,0,0,1,0-6.707,22.737,22.737,0,0,1-1.6-9.1A11.215,11.215,0,0,1,3.1,3.105C5.954.251,10.489-.671,15.87.507A30.738,30.738,0,0,1,22.992,3.1,31.948,31.948,0,0,1,28.773.843c5.989-1.658,11-.855,14.122,2.262S46.815,11.236,45.156,17.225ZM29.133,43.855c5.5,1.523,10.049.843,12.807-1.915,3.65-3.65,3.514-10.342.179-17.463a46.031,46.031,0,0,1-7.647,10c-.383.382-.776.763-1.174,1.135A4.273,4.273,0,0,1,26.6,40.838q-1.063.682-2.132,1.278A29.926,29.926,0,0,0,29.133,43.855ZM4.054,41.94a10.251,10.251,0,0,0,7.463,2.7,24.14,24.14,0,0,0,10-2.523,46.026,46.026,0,0,1-9.994-7.643A47.123,47.123,0,0,1,5.478,27.1a4.261,4.261,0,0,1-2.657-.081C.481,33.394.92,38.806,4.054,41.94Zm0-37.881C.92,7.194.482,12.6,2.821,18.98a4.251,4.251,0,0,1,1.455-.255,4.328,4.328,0,0,1,1.2.17,47.3,47.3,0,0,1,6.043-7.37,45.983,45.983,0,0,1,10-7.644C14.4.546,7.7.41,4.055,4.059Zm8.422,8.421a45.87,45.87,0,0,0-5.766,7,4.281,4.281,0,0,1,1.388,1.6l-1.207.605A2.926,2.926,0,1,0,7.2,23c0-.088,0-.176-.012-.262l1.345-.119c.012.126.017.254.017.381a4.272,4.272,0,0,1-1.843,3.512,45.927,45.927,0,0,0,5.769,7.007,44.075,44.075,0,0,0,10.516,7.863q1.408-.741,2.83-1.646a4.266,4.266,0,0,1,.158-4.069l1.16.69a2.926,2.926,0,1,0,.723-.819l-.829-1.065a4.269,4.269,0,0,1,5.38.113c.374-.35.743-.707,1.1-1.067A44.072,44.072,0,0,0,41.383,23a42.309,42.309,0,0,0-5.031-7.427,4.273,4.273,0,0,1-5.928-5.927A42.388,42.388,0,0,0,23,4.615,44.1,44.1,0,0,0,12.477,12.48ZM41.94,4.059C39.182,1.3,34.634.622,29.133,2.144a29.926,29.926,0,0,0-4.663,1.74,44.338,44.338,0,0,1,6.875,4.772,4.271,4.271,0,0,1,4.816-.313L35.471,9.5a2.924,2.924,0,1,0,.818.722L37.354,9.4a4.267,4.267,0,0,1-.012,5.255,44.146,44.146,0,0,1,4.772,6.874,29.832,29.832,0,0,0,1.741-4.663C45.378,11.365,44.7,6.817,41.94,4.059ZM33.3,11.345h1.35v1.35H33.3Zm-3.089,11.98a3.388,3.388,0,0,1,2.459,3.248v3.4h1.4v1.349h-12.6V29.975h6.076V28.129h1.35v1.846h2.43v-3.4a2.031,2.031,0,0,0-1.475-1.948l-.5-.143.366-1.3Zm-.688,2.609-.366,1.3-1.3-.366.367-1.3Zm-2.963.569-1.9-.536.367-1.3,1.9.536Zm1.847-3.686-.366,1.3-2.814-.794a3.027,3.027,0,0,1-4.465,0l-4.618,1.3a2.03,2.03,0,0,0-1.475,1.948v3.4H17.1V28.129h1.35v1.846h1.665v1.349H11.926V29.975h1.4v-3.4a3.389,3.389,0,0,1,2.459-3.248l4.562-1.286V20.246a4.721,4.721,0,0,1-2.07-3.906V14.36a4.726,4.726,0,0,1,9.451,0v1.98a4.724,4.724,0,0,1-2.07,3.906v1.793Zm-6.718-.485a1.678,1.678,0,0,0,2.61,0V20.88a4.7,4.7,0,0,1-2.61,0Zm4.68-7.972a3.375,3.375,0,0,0-6.557-1.125h5.138l1.419,1.877ZM26.26,17.2l-1.978-2.617h-4.66V16.34a3.375,3.375,0,0,0,6.638.862ZM3.6,22.325H4.951v1.35H3.6Zm26.733,16.2h-1.35v-1.35h1.35Z" fill="#5e3d9f" fill-rule="evenodd"/>
    <path id="Path_2" data-name="Path 2" d="M45.156,17.225A31.968,31.968,0,0,1,42.9,23a30.686,30.686,0,0,1,2.6,7.121c1.179,5.38.257,9.915-2.6,12.768A11.481,11.481,0,0,1,34.513,46a21.6,21.6,0,0,1-5.74-.844A32.032,32.032,0,0,1,23,42.9a28.341,28.341,0,0,1-9.355,2.968,18.981,18.981,0,0,1-2.159.128,11.465,11.465,0,0,1-8.382-3.1A11.215,11.215,0,0,1,.028,35.452a22.74,22.74,0,0,1,1.6-9.1,4.266,4.266,0,0,1,0-6.707,22.737,22.737,0,0,1-1.6-9.1A11.215,11.215,0,0,1,3.1,3.105C5.954.251,10.489-.671,15.87.507A30.738,30.738,0,0,1,22.992,3.1,31.948,31.948,0,0,1,28.773.843c5.989-1.658,11-.855,14.122,2.262S46.815,11.236,45.156,17.225ZM29.133,43.855c5.5,1.523,10.049.843,12.807-1.915,3.65-3.65,3.514-10.342.179-17.463a46.031,46.031,0,0,1-7.647,10c-.383.382-.776.763-1.174,1.135A4.273,4.273,0,0,1,26.6,40.838q-1.063.682-2.132,1.278A29.926,29.926,0,0,0,29.133,43.855ZM4.054,41.94a10.251,10.251,0,0,0,7.463,2.7,24.14,24.14,0,0,0,10-2.523,46.026,46.026,0,0,1-9.994-7.643A47.123,47.123,0,0,1,5.478,27.1a4.261,4.261,0,0,1-2.657-.081C.481,33.394.92,38.806,4.054,41.94Zm0-37.881C.92,7.194.482,12.6,2.821,18.98a4.251,4.251,0,0,1,1.455-.255,4.328,4.328,0,0,1,1.2.17,47.3,47.3,0,0,1,6.043-7.37,45.983,45.983,0,0,1,10-7.644C14.4.546,7.7.41,4.055,4.059Zm8.422,8.421a45.87,45.87,0,0,0-5.766,7,4.281,4.281,0,0,1,1.388,1.6l-1.207.605A2.926,2.926,0,1,0,7.2,23c0-.088,0-.176-.012-.262l1.345-.119c.012.126.017.254.017.381a4.272,4.272,0,0,1-1.843,3.512,45.927,45.927,0,0,0,5.769,7.007,44.075,44.075,0,0,0,10.516,7.863q1.408-.741,2.83-1.646a4.266,4.266,0,0,1,.158-4.069l1.16.69a2.926,2.926,0,1,0,.723-.819l-.829-1.065a4.269,4.269,0,0,1,5.38.113c.374-.35.743-.707,1.1-1.067A44.072,44.072,0,0,0,41.383,23a42.309,42.309,0,0,0-5.031-7.427,4.273,4.273,0,0,1-5.928-5.927A42.388,42.388,0,0,0,23,4.615,44.1,44.1,0,0,0,12.477,12.48ZM41.94,4.059C39.182,1.3,34.634.622,29.133,2.144a29.926,29.926,0,0,0-4.663,1.74,44.338,44.338,0,0,1,6.875,4.772,4.271,4.271,0,0,1,4.816-.313L35.471,9.5a2.924,2.924,0,1,0,.818.722L37.354,9.4a4.267,4.267,0,0,1-.012,5.255,44.146,44.146,0,0,1,4.772,6.874,29.832,29.832,0,0,0,1.741-4.663C45.378,11.365,44.7,6.817,41.94,4.059ZM33.3,11.345h1.35v1.35H33.3Zm-3.089,11.98a3.388,3.388,0,0,1,2.459,3.248v3.4h1.4v1.349h-12.6V29.975h6.076V28.129h1.35v1.846h2.43v-3.4a2.031,2.031,0,0,0-1.475-1.948l-.5-.143.366-1.3Zm-.688,2.609-.366,1.3-1.3-.366.367-1.3Zm-2.963.569-1.9-.536.367-1.3,1.9.536Zm1.847-3.686-.366,1.3-2.814-.794a3.027,3.027,0,0,1-4.465,0l-4.618,1.3a2.03,2.03,0,0,0-1.475,1.948v3.4H17.1V28.129h1.35v1.846h1.665v1.349H11.926V29.975h1.4v-3.4a3.389,3.389,0,0,1,2.459-3.248l4.562-1.286V20.246a4.721,4.721,0,0,1-2.07-3.906V14.36a4.726,4.726,0,0,1,9.451,0v1.98a4.724,4.724,0,0,1-2.07,3.906v1.793Zm-6.718-.485a1.678,1.678,0,0,0,2.61,0V20.88a4.7,4.7,0,0,1-2.61,0Zm4.68-7.972a3.375,3.375,0,0,0-6.557-1.125h5.138l1.419,1.877ZM26.26,17.2l-1.978-2.617h-4.66V16.34a3.375,3.375,0,0,0,6.638.862ZM3.6,22.325H4.951v1.35H3.6Zm26.733,16.2h-1.35v-1.35h1.35Z" fill="#5e3d9f"/>
  </g>
</svg>
