<svg xmlns="http://www.w3.org/2000/svg" width="30.998" height="35.001" viewBox="0 0 30.998 35.001">
  <path id="h1" d="M30.988,10.811A2.382,2.382,0,0,1,30.07,12.9c-1.564,1.209-3.635.5-5.366.159a11.111,11.111,0,0,1-2.143,7.867,62.9,62.9,0,0,0-.47,11.495c.855.247,1.093,1.948,1.133,2.3l.032.28H18.062V32.9l.138-.071s.11-.056.282-.128a16.249,16.249,0,0,0-.228-4.365,15.876,15.876,0,0,0-1.342-3.574,11.211,11.211,0,0,1-7.139-.3A10.054,10.054,0,0,0,7.637,32.4c.932.146,1.184,1.959,1.226,2.323l.031.28H3.415V32.9l.138-.072s.029-.015.076-.036L3.7,31.8a26.769,26.769,0,0,0,.1-5.839c-.3-2-1.3-3.772-1.789-5.715C.7,21.05-.145,18.6.025,17.7a2.573,2.573,0,0,1,2.921-2.059,5,5,0,0,1,3.237-1.783,38.766,38.766,0,0,1,4.468.117,8.4,8.4,0,0,0,6.472-3.41A5.111,5.111,0,0,1,12.938,6.6,5.643,5.643,0,0,1,14.38,1.618C15.973.007,18.456-.242,20.586.18c2.2.435,4.553,1.559,5.412,3.756a4.586,4.586,0,0,1,1.156,2.113l.056.187a6.519,6.519,0,0,0,.679,1.707A3.135,3.135,0,0,0,29.3,9.024h0C30.085,9.4,30.877,9.869,30.988,10.811Zm-8.875,9.872a10.772,10.772,0,0,0,2.08-7.716l-.081-.011a12.98,12.98,0,0,1-.959,4.934,7.893,7.893,0,0,1-1.668,2.24,4.349,4.349,0,0,0-.976,2.219A9.879,9.879,0,0,0,22.113,20.683ZM20.561,32.578c.007.007.015.012.023.019.045-.017.1-.032.146-.048a3.513,3.513,0,0,1,.85-.164,62.94,62.94,0,0,1,.378-10.718c-.087.1-.182.191-.274.285a10.079,10.079,0,0,1-1.276,1.121C20.073,26.23,20.7,29.413,20.561,32.578Zm.8,1.917h1.315c-.119-.692-.4-1.532-.753-1.6l-.1-.008a2.566,2.566,0,0,0-.911.133A4.648,4.648,0,0,1,21.363,34.495Zm-2.792,0h2.275a3.5,3.5,0,0,0-.463-1.366c-.372-.544-1.341-.122-1.812.085ZM9.851,23.957a10.711,10.711,0,0,0,6.829.352,6.966,6.966,0,0,1-.781-1.756,2.87,2.87,0,0,1,.3-1.784,15.862,15.862,0,0,1-5.809.852,4.34,4.34,0,0,1-.6,2.311ZM6.717,34.495h1.6c-.074-.432-.249-1.595-.853-1.606l-.068,0a3.2,3.2,0,0,0-1.088.218A4.911,4.911,0,0,1,6.717,34.495Zm.406-2.1a10.378,10.378,0,0,1,1.768-7.575,4.691,4.691,0,0,1-1.379.5A11.549,11.549,0,0,0,6.134,32.63,3.627,3.627,0,0,1,7.123,32.392Zm-3.2,2.1H6.2a3.4,3.4,0,0,0-.465-1.367l-.007-.009c-.4-.517-1.321-.121-1.8.1ZM.542,17.712a1.983,1.983,0,0,0,.211,1.41c.149.266.679,1.036,1.047.648.029-.03.055-.06.08-.091A4.986,4.986,0,0,1,2.6,16.11,2.07,2.07,0,0,0,.542,17.712ZM16.319,12.2a9.066,9.066,0,0,1-3.359,1.921,10.733,10.733,0,0,1-4.117.276,7.413,7.413,0,0,0-4.125.439A4.574,4.574,0,0,0,2.36,18.081a8.577,8.577,0,0,0,.937,4.36,18.317,18.317,0,0,1,.914,2.969,24.39,24.39,0,0,1-.005,6.427l-.052.744a2.7,2.7,0,0,1,1.431-.173,12.779,12.779,0,0,1,.595-5.379,9.96,9.96,0,0,1,.543-1.31c.147-.3.294-.789.65-.883A3.214,3.214,0,0,0,9.2,23.885l0,0a3.73,3.73,0,0,0,.672-2.534l-.01-.3.3.041a15.742,15.742,0,0,0,6.46-.971l.606-.181-.311.547a2.852,2.852,0,0,0-.506,2.024,8.5,8.5,0,0,0,.863,1.844l.136.268h0c.1.2.2.407.3.641-.005-.012-.007-.015,0,0,.938,2.152.093.213,0,.008A13.27,13.27,0,0,1,19,32.518a2.906,2.906,0,0,1,1.051-.135c.1-2.976-.4-5.951-.182-8.924l-.027.019.066-.568.013-.111,0,0a5.539,5.539,0,0,1,1.046-2.852c.334-.405.767-.7,1.083-1.131a5.775,5.775,0,0,0,.61-1.066,12.532,12.532,0,0,0,.94-4.856c-1.651-.2-3.11-.745-3.575-2.509a5.639,5.639,0,0,1-2.339.272A9.135,9.135,0,0,1,16.319,12.2Zm9.037-8.457A5,5,0,0,0,23.484,1.8,8.867,8.867,0,0,0,17.407.624,4.857,4.857,0,0,0,13.657,3.7a4.941,4.941,0,0,0,.511,4.524c-.329-.458-.969-1.347,0,0,.254.353.168.234,0,0a5.085,5.085,0,0,0,4.731,1.9,4.087,4.087,0,0,0,2.6-1.294,1.843,1.843,0,0,0,.389-2.185l-.285-.4.495,0a8.21,8.21,0,0,0,1.781-.2,4.906,4.906,0,0,0-5.439-2.772c-1.043.284-2.116,1.165-1.851,2.361.245,1.1,1.719,1.378,2.634.975a1.007,1.007,0,0,1-.276-1.944c1.085-.4,1.71.875,1.185,1.721-.976,1.574-3.954.818-4-1.034C16.08,3.315,18.53,2.5,20.218,2.8a5.644,5.644,0,0,1,4.074,3.147c.4-.112,1.343-.27,1.46-.745A2.546,2.546,0,0,0,25.356,3.739ZM18.9,6.009c.356.3.1.085,0,0,.177.149.5.393.748.287s.293-.615.232-.841c-.261-.963-1.731-.082-.985.55ZM29.221,9.547A3.9,3.9,0,0,1,27.449,8.2a7.084,7.084,0,0,1-.727-1.82l-.056-.187a6.422,6.422,0,0,0-.4-1.04c-.044.731-.851.968-1.429,1.161a8.5,8.5,0,0,1-2.327.435c.541,1.443-.789,2.863-2,3.434a2.693,2.693,0,0,0,1.08,1.645,4.77,4.77,0,0,0,2.068.561l.23.028H23.9l.219.027v0c.085.011.17.021.254.034l.06.011a14.221,14.221,0,0,0,3.856.553,2.506,2.506,0,0,1-1.118-.879c-.1-.145-.32-.432-.291-.621a.241.241,0,0,1,.345-.145c.157.1.264.438.387.59a2.349,2.349,0,0,0,.536.488,1.78,1.78,0,0,0,1.155.3,2.4,2.4,0,0,0,.456-.272h0c.523-.4.082-.063,0,0a1.865,1.865,0,0,0,.715-1.7C30.364,10.148,29.774,9.812,29.221,9.547ZM26.232,8.9a.781.781,0,0,1,0-1.562A.781.781,0,0,1,26.232,8.9Zm3.526,3.6ZM18.9,6.009h0l0,0ZM14.17,8.225l0,0,0,.005ZM7.123,32.392S6.782,28.936,7.123,32.392ZM29.3,9.024Z" transform="translate(-0.003 0.002)" fill="#5e3d9f" fill-rule="evenodd"/>
</svg>
