<svg xmlns="http://www.w3.org/2000/svg" width="32.001" height="35.001" viewBox="0 0 32.001 35.001">
  <path id="h10" d="M31.459,7.7A4.343,4.343,0,0,0,29.91,7.18a3.784,3.784,0,0,1-1.5-.966,9.449,9.449,0,0,0-2.771-2.369A5.694,5.694,0,0,0,19.9,0c-2.862.065-5.131,1.629-7.425,3.17A8.744,8.744,0,0,1,8.684,4.843a4.271,4.271,0,0,0-1.891.289A1.044,1.044,0,0,0,6.371,6.57c.619.91,2.205.416,3.046.176a16.04,16.04,0,0,0,3.5-1.527C14.078,4.558,15.126,3.7,16.3,3.068a6.918,6.918,0,0,1,3.566-.853c-2.569.128-4.553,1.946-6.6,3.3A11.624,11.624,0,0,1,6.053,7.469l-.064,0c-.658-.044-1.746.123-1.624,1.053.1.781,1.106.947,1.718,1.027a10.6,10.6,0,0,0,5.669-.976,22.791,22.791,0,0,0,4.865-3.013c1.225-.981,3.325-2.2,4.812-.952a3.68,3.68,0,0,0-2.381.179l-.244.1.112.24A4.356,4.356,0,0,0,20.587,6.88c-1.6,2.552-3.436,5.17-6.228,6.468-2.991,1.391-6.433,1.114-9.618.83a4.772,4.772,0,0,0-4.62,2.336L0,16.7l.173.141a2.459,2.459,0,0,0,2.484.495,7.079,7.079,0,0,0,.2,4.282,11.76,11.76,0,0,1,.686,2.037A2.45,2.45,0,0,1,3,25.639,5.372,5.372,0,0,0,1.99,27.234a3.894,3.894,0,0,0,.2,2.24,24.414,24.414,0,0,0,1.762,3.777L3.981,35H6.936l.029-.216A1.985,1.985,0,0,0,6.243,33,15.627,15.627,0,0,1,4.29,27.939c.528-.721,1.035-1.467,1.53-2.219a11.25,11.25,0,0,1-.687,1.9l-.073.155.117.125a9.941,9.941,0,0,1,2.729,4.821l.028,1.969h2.924l.04-.2a1.984,1.984,0,0,0-.708-1.908c-.756-1.7-1.606-3.353-2.339-5.063a11.635,11.635,0,0,0,2.879-5,23.882,23.882,0,0,0,6.242-1.089c.913,3.822.765,7.77.954,11.668l.028,1.9H22.49l.041-.2a1.949,1.949,0,0,0-.861-2.027,35.357,35.357,0,0,1-.237-9.31c.323-2.989,1.337-6.048.631-9.055.416-1.3.9-2.666,1.542-4.4a19.2,19.2,0,0,1,2.989.3A10.92,10.92,0,0,0,29.542,11a2.434,2.434,0,0,0,2.165-1.048A1.746,1.746,0,0,0,31.459,7.7Zm-11.6-5.986A7.978,7.978,0,0,0,14.94,3.333c-1.486,1.053-.668.474-.007.005A16.32,16.32,0,0,1,7.968,6.547a1.372,1.372,0,0,1-1.154-.21c-.525-.571.591-.939.961-.957a8.038,8.038,0,0,0,3.854-1.091c2.338-1.355,4.313-3.168,7.05-3.663,2.556-.463,5.376.436,6.392,3.054a2.751,2.751,0,0,0-1.245.1A4.466,4.466,0,0,0,19.854,1.711ZM19.8,3.626a5.18,5.18,0,0,0-3.2,1.3c.286-.235.486-.4,0,0A19.284,19.284,0,0,1,9.984,8.695a9.51,9.51,0,0,1-3.718.37c-.395-.044-1.237-.085-1.4-.555-.2-.583.8-.567,1.091-.548l.065,0a12.175,12.175,0,0,0,4.818-.654,17.3,17.3,0,0,0,4.213-2.439c2.17-1.548,5.92-3.618,8-.733a3.072,3.072,0,0,0-.8.742A2.555,2.555,0,0,0,19.8,3.626ZM19.5,5.15c.075-.024.135-.039.189-.051a2.917,2.917,0,0,1,2.291.269l.054.03c.042.024.084.048.123.074h0A4.2,4.2,0,0,1,23.33,6.7,3.377,3.377,0,0,1,19.5,5.15ZM2.859,16.7A1.854,1.854,0,0,1,.8,16.678,1.122,1.122,0,0,1,.667,16.6a4.657,4.657,0,0,1,3.391-1.981A6.972,6.972,0,0,0,2.859,16.7ZM6.49,34.5H4.465l-.013-.889,1.614-.121A1.486,1.486,0,0,1,6.49,34.5Zm3.376-1.546a1.467,1.467,0,0,1,.576,1.24H8.418L8.4,32.865a1.458,1.458,0,0,1,1.457.084Zm.444-10.747v0a11.14,11.14,0,0,1-2.922,5.075l-.122.12.067.157c.673,1.588,1.451,3.126,2.168,4.693a1.974,1.974,0,0,0-1.177.09,10.423,10.423,0,0,0-2.676-4.662,11.873,11.873,0,0,0,.922-3.12Q7.593,22.922,8.5,21.206a11.439,11.439,0,0,0,2.007.151Q10.424,21.786,10.31,22.209Zm2.765-.377-.546.069c-.148.019-.11.014-.005,0a15.783,15.783,0,0,1-1.658.121c.055-.226.106-.453.147-.682a11.858,11.858,0,0,0,5.472-1.646c.134.406.252.829.364,1.255a29.711,29.711,0,0,1-4.316.95ZM18.438,34.5l-.011-.756,1.816-.174a2.236,2.236,0,0,1,.318.93Zm3.079-1.24a1.472,1.472,0,0,1,.56,1.24H21.066a2.112,2.112,0,0,0-.225-.92A1.937,1.937,0,0,0,21.517,33.262Zm-.149-12.73c-.021.119-.015.087,0,0a37.648,37.648,0,0,0-.235,11.956l-.009-.005.062.384a2.358,2.358,0,0,1-.608.171,59.764,59.764,0,0,1-.406-9.01,36.216,36.216,0,0,1,1.577-8.6A17.572,17.572,0,0,1,21.368,20.532Zm.476-7.032,0-.01-.265.829A35.76,35.76,0,0,0,19.7,23.53a66.281,66.281,0,0,0,.383,9.532c-.087.014-.174.03-.26.049l-1.4.134-.008-.167c-.191-3.937-.046-7.922-.972-11.781l.007,0-.06-.235c-.157-.625-.34-1.238-.543-1.822l-.1-.293-.259.165a11.371,11.371,0,0,1-8.076,1.575l-.177-.033-.084.161c-.626,1.194-1.306,2.381-2.022,3.529h0c-.721,1.156-1.493,2.3-2.294,3.386l-.064.087.019.106A14.3,14.3,0,0,0,5.08,31.829l-.06-.061.551,1.021c.042.078.08.154.123.232l-1.255.094-.5-1v.038A10.258,10.258,0,0,1,2.388,28a3.209,3.209,0,0,1,.982-2.033A2.96,2.96,0,0,0,4.049,23.7a10.857,10.857,0,0,0-.726-2.245,6.489,6.489,0,0,1-.417-2.393,6.594,6.594,0,0,1,1.766-4.388l.023,0c3.281.294,6.808.558,9.884-.88,2.892-1.351,4.8-4.043,6.453-6.691a3.338,3.338,0,0,0,.354.118,2.456,2.456,0,0,0,1.726,2.706C22.6,11.3,22.2,12.436,21.844,13.5Zm6.568-3.155Zm.359.09Zm2.559-.822a3.721,3.721,0,0,1-1.475-.047c-.254-.056-1.164-.548-1.341-.337-.291.347.676.639.88.706a4.515,4.515,0,0,0,1.5.185,2.972,2.972,0,0,1-2.445.235l.31.078-.31-.078h0c-.732-.185-1.434-.478-2.173-.641a14.637,14.637,0,0,0-2.292-.16,2.016,2.016,0,0,1-2.111-2.239,4.325,4.325,0,0,0,1.9-.227L24.043,7l-.123-.255a4.452,4.452,0,0,0-1.286-1.536,2.475,2.475,0,0,1,2.735-.937l0,0c1.429.5,2.207,2.054,3.411,2.9a9.66,9.66,0,0,0,2.113.775A1.153,1.153,0,0,1,31.33,9.613Z" transform="translate(0 0.001)" fill="#8cbc50" fill-rule="evenodd"/>
</svg>
