<svg xmlns="http://www.w3.org/2000/svg" width="28.999" height="35.001" viewBox="0 0 28.999 35.001">
  <path id="h11" d="M24.66,1.16A7.849,7.849,0,0,0,20.84,0a7.6,7.6,0,0,0-4.3,1.677c-.308.2-.614.405-.925.593a6.97,6.97,0,0,1-3.919.906V2.639H9.157V4.048A5.2,5.2,0,0,0,5.773,6.072,10.977,10.977,0,0,0,3.9,10.817a55.67,55.67,0,0,0-.485,12.275c.084,2.468.172,5.011.052,7.508a2.055,2.055,0,0,0-2-.313,2.393,2.393,0,0,0-1.362,1.6,2.476,2.476,0,0,0,.3,2.1,2.317,2.317,0,0,0,1.906.934,2.33,2.33,0,0,0,1.614-.612A2.009,2.009,0,0,0,5.424,35a1.754,1.754,0,0,0,.37-.039,2.04,2.04,0,0,0,1.418-1.227,2.656,2.656,0,0,0,2.107.654,2.322,2.322,0,0,0,1.9-1.832,2.03,2.03,0,0,0-1.347-2.273,1.736,1.736,0,0,0-1.523.362A85.568,85.568,0,0,0,7.9,13.9l-.024-.2a10.583,10.583,0,0,1-.041-3.687,3.641,3.641,0,0,1,1.318-2.1v.505H11.7V8c.254.007.53.027.831.059l.264,4.447c.051.862.217,1.9,1.054,2.263a1.365,1.365,0,0,0,.552.112,2.5,2.5,0,0,0,1.111-.312,6.538,6.538,0,0,0,2.426-2.13l.024.1.039.168c-.058.047-.116.094-.176.139l-.1.079v.133a6.325,6.325,0,0,0,.314,1.6,2.056,2.056,0,0,0,.113.3l-.118.09.2.217a2.358,2.358,0,0,0,.475.395,27.1,27.1,0,0,0-1.784,5.453l-.069.319h.884c.015.177.03.352.047.535a17.232,17.232,0,0,1,.052,3.472c-.133,1.614-.235,2.675-.338,3.734-.052.535-.1,1.07-.16,1.676a2.272,2.272,0,0,1-.22.945,2.192,2.192,0,0,1-.867.694c-.083.047-.164.093-.245.142a2.235,2.235,0,0,0-.843.825.561.561,0,0,0,.016.539.551.551,0,0,0,.473.277l2.335-.251a1.4,1.4,0,0,0,.829-.288,1.568,1.568,0,0,0,.359-1.227V32.4a8,8,0,0,1,.5-2.33c.107-.333.213-.667.3-1a20.512,20.512,0,0,0,.507-4.153,27.567,27.567,0,0,1,.272-2.979,27.569,27.569,0,0,1,.273,2.979,20.459,20.459,0,0,0,.507,4.154c.089.336.2.67.3,1a8,8,0,0,1,.5,2.33v.117a1.575,1.575,0,0,0,.359,1.228,1.405,1.405,0,0,0,.829.288l2.277.248.059,0a.552.552,0,0,0,.473-.277.559.559,0,0,0,.015-.539,2.228,2.228,0,0,0-.843-.825c-.08-.049-.162-.095-.245-.142a2.192,2.192,0,0,1-.867-.694,2.3,2.3,0,0,1-.22-.945c-.056-.6-.107-1.134-.159-1.667-.1-1.062-.206-2.124-.338-3.743a17.139,17.139,0,0,1,.051-3.469c.018-.182.032-.356.047-.531h.689l-1.406-4.945a3.709,3.709,0,0,0-.254-.672l1.32-3.343a35.156,35.156,0,0,0,2.1,6.942c.038.083.074.167.111.253a2.5,2.5,0,0,0,.851,1.23,1.091,1.091,0,0,0,.571.17.892.892,0,0,0,.8-.5,1.711,1.711,0,0,0,0-1.359,8.8,8.8,0,0,0-.524-1.214,10.562,10.562,0,0,1-.81-2.068,17.871,17.871,0,0,1-.809-4.062c-.01-.233-.013-.467-.016-.7a8.925,8.925,0,0,0-.139-1.763,1.429,1.429,0,0,0-.368-.72,28.213,28.213,0,0,1,2.9-.712L29,7.946V2.233h-.254A14.293,14.293,0,0,1,24.66,1.16ZM9.157,4.954A8.613,8.613,0,0,0,5.934,7.731a6.693,6.693,0,0,0-1.119,4.8c.046.275.113.552.178.819a4.5,4.5,0,0,1,.193,1.873,4.778,4.778,0,0,1-.354,1,3.186,3.186,0,0,0-.393,1.661A3.238,3.238,0,0,0,4.8,18.9a2.631,2.631,0,0,1,.328.971A2.647,2.647,0,0,1,4.8,21.057,3.26,3.26,0,0,0,4.444,22.3a3.248,3.248,0,0,0,.273,1.182,2.909,2.909,0,0,1,.25,1.044,3,3,0,0,1-.33,1.112A2.688,2.688,0,0,0,4.3,27.132,2.808,2.808,0,0,0,4.639,28a1.729,1.729,0,0,1,.294.951,1.742,1.742,0,0,1-.283.663,1.8,1.8,0,0,0-.273,1.62,3.611,3.611,0,0,1,.068.486,1.572,1.572,0,0,1-.585,1.243,1.474,1.474,0,0,1-1.3.351,1.122,1.122,0,0,1-.827-.762.778.778,0,0,1,.109-.586.541.541,0,0,1,.365-.258.5.5,0,0,1,.517.531c-.016.289.278.323.336.131a.761.761,0,0,0-.121-.643.818.818,0,0,0-.786-.382.894.894,0,0,0-.608.417,1.15,1.15,0,0,0-.158.877,1.465,1.465,0,0,0,1.088,1.031,1.572,1.572,0,0,0,.387.048,1.905,1.905,0,0,0,1.221-.471A1.944,1.944,0,0,0,4.8,31.7a3.915,3.915,0,0,0-.074-.538,1.449,1.449,0,0,1,.227-1.358,2.055,2.055,0,0,0,.334-.813,2.028,2.028,0,0,0-.336-1.168,2.513,2.513,0,0,1-.3-.75,2.379,2.379,0,0,1,.308-1.283,3.3,3.3,0,0,0,.363-1.255,3.234,3.234,0,0,0-.274-1.183,2.914,2.914,0,0,1-.25-1.044,2.947,2.947,0,0,1,.328-1.1,2.961,2.961,0,0,0,.353-1.356,2.946,2.946,0,0,0-.365-1.113,2.907,2.907,0,0,1-.323-.9,2.864,2.864,0,0,1,.364-1.464,5.084,5.084,0,0,0,.38-1.086,4.866,4.866,0,0,0-.2-2.032c-.063-.261-.129-.532-.174-.793A6.315,6.315,0,0,1,6.226,7.942,8.211,8.211,0,0,1,9.157,5.364v.39a12.052,12.052,0,0,0-2.595,2.4,5.624,5.624,0,0,0-1.224,4.236A8.791,8.791,0,0,0,5.6,13.431a4.3,4.3,0,0,1,.274,1.781,4.443,4.443,0,0,1-.249.885,3.294,3.294,0,0,0-.277,1.371A3.331,3.331,0,0,0,5.7,18.582,2.912,2.912,0,0,1,6.024,19.6a2.923,2.923,0,0,1-.308,1.22,3.317,3.317,0,0,0-.339,1.352,3.3,3.3,0,0,0,.329,1.171A3,3,0,0,1,6,24.382a3.372,3.372,0,0,1-.359,1.33A2.372,2.372,0,0,0,5.4,27.639a2.427,2.427,0,0,0,.339.511,1.651,1.651,0,0,1,.324.52,1.686,1.686,0,0,1-.246,1.163A3.279,3.279,0,0,0,5.5,30.8a3.065,3.065,0,0,0,.212,1.273,2.548,2.548,0,0,1,.183,1.111.751.751,0,0,1-.577.677.417.417,0,0,1-.367-.229c-.029-.05-.086-.18-.033-.265a.2.2,0,0,1,.189-.044.184.184,0,0,1,.108.052c.172.225.456.019.327-.17a.582.582,0,0,0-.36-.241.549.549,0,0,0-.537.169.644.644,0,0,0,0,.682.777.777,0,0,0,.656.414h.047a1.107,1.107,0,0,0,.9-.992,2.927,2.927,0,0,0-.2-1.278,2.745,2.745,0,0,1-.2-1.115,2.974,2.974,0,0,1,.292-.849,1.983,1.983,0,0,0,.263-1.431,1.99,1.99,0,0,0-.388-.642,2.163,2.163,0,0,1-.293-.431,2.09,2.09,0,0,1,.247-1.628,3.627,3.627,0,0,0,.389-1.487,3.315,3.315,0,0,0-.329-1.17,3,3,0,0,1-.3-1.037,3.019,3.019,0,0,1,.311-1.2,3.229,3.229,0,0,0,.336-1.383,3.225,3.225,0,0,0-.355-1.156,3.049,3.049,0,0,1-.322-.988,3,3,0,0,1,.257-1.215,4.84,4.84,0,0,0,.269-.962,4.655,4.655,0,0,0-.287-1.938,8.482,8.482,0,0,1-.253-1A5.256,5.256,0,0,1,6.842,8.378,11.3,11.3,0,0,1,9.157,6.206v.368A7.837,7.837,0,0,0,6.942,8.716a5.105,5.105,0,0,0-.849,3.611,8.707,8.707,0,0,0,.276,1.059,4.035,4.035,0,0,1,.277,1.855,4.265,4.265,0,0,1-.2.7,2.549,2.549,0,0,0-.218,1.345,2.572,2.572,0,0,0,.3.739,2.277,2.277,0,0,1,.266.62,2.288,2.288,0,0,1-.181,1.151,3.42,3.42,0,0,0-.228,1.054,3.288,3.288,0,0,0,.286,1.187,6.141,6.141,0,0,1,.2.586,5.51,5.51,0,0,1,.079,1.711l-.038.591c-.033.509-.065,1.018-.086,1.528A32.1,32.1,0,0,0,6.9,30.324a5.775,5.775,0,0,0,.364,1.813A2.226,2.226,0,0,0,8.6,33.453a1.448,1.448,0,0,0,.424.063,1.225,1.225,0,0,0,.993-.463,1.041,1.041,0,0,0,.147-.885.824.824,0,0,0-.482-.566.732.732,0,0,0-.825.282.646.646,0,0,0-.129.645c.131.286.382.1.329-.149a.352.352,0,0,1,.08-.268.4.4,0,0,1,.42-.166.468.468,0,0,1,.264.324.669.669,0,0,1-.087.56A.95.95,0,0,1,8.7,33.1a1.87,1.87,0,0,1-1.1-1.11,5.48,5.48,0,0,1-.336-1.7,31.545,31.545,0,0,1-.077-3.828c.02-.507.053-1.014.085-1.52l.038-.592a5.774,5.774,0,0,0-.092-1.829A5.934,5.934,0,0,0,7,21.9a3.019,3.019,0,0,1-.262-1.052,3.142,3.142,0,0,1,.209-.938,2.593,2.593,0,0,0,.192-1.344,2.579,2.579,0,0,0-.3-.725,2.293,2.293,0,0,1-.267-.63,2.263,2.263,0,0,1,.2-1.148A4.6,4.6,0,0,0,7,15.305a4.369,4.369,0,0,0-.288-2.03,8.331,8.331,0,0,1-.265-1.012,4.725,4.725,0,0,1,.792-3.34,7.3,7.3,0,0,1,1.921-1.91V7.3A4.061,4.061,0,0,0,7.345,9.9a10.978,10.978,0,0,0,.031,3.877l.024.2a85.024,85.024,0,0,1,.355,17.78h0l.506.047a1.245,1.245,0,0,1,1.215-1.044,1.024,1.024,0,0,1,.267.035,1.511,1.511,0,0,1,.978,1.675,1.79,1.79,0,0,1-1.476,1.4,2.2,2.2,0,0,1-1.969-.8l-.362-.428-.081.562a1.517,1.517,0,0,1-1.141,1.246,1.486,1.486,0,0,1-1.525-.682l-.189-.319-.226.292a1.8,1.8,0,0,1-1.437.658,1.816,1.816,0,0,1-1.5-.719A1.942,1.942,0,0,1,.6,32.032a1.871,1.871,0,0,1,1.056-1.255,1.493,1.493,0,0,1,.544-.1,1.321,1.321,0,0,1,1.25.746l.415,1.055.074-1.136c.177-2.749.081-5.555-.012-8.268A55.2,55.2,0,0,1,4.4,10.917,10.5,10.5,0,0,1,6.169,6.4,4.718,4.718,0,0,1,9.157,4.568ZM11.19,7.733V7.9H9.665V3.163H11.19Zm6.97,3.31-.333.6a6.025,6.025,0,0,1-2.54,2.456,1.477,1.477,0,0,1-1.242.189c-.58-.253-.7-1.1-.745-1.813L13.042,8.12h0l-.031-.508a2.257,2.257,0,0,1,.086-1,.717.717,0,0,1,.1-.163c.012-.014.026-.024.038-.037a.625.625,0,0,1,.1-.088c.015-.011.031-.018.046-.027a.467.467,0,0,1,.106-.046.3.3,0,0,1,.052-.011.313.313,0,0,1,.133,0,.349.349,0,0,1,.105.054,1.348,1.348,0,0,1,.284.976l0,.179.062,3.744a1.329,1.329,0,0,0,.455,1.155.931.931,0,0,0,1.02-.1,2.294,2.294,0,0,0,.553-.707L17.215,9.72h0l.245-.424A2.171,2.171,0,0,1,18.42,8.25a2.085,2.085,0,0,1,.659-.079,2.041,2.041,0,0,0,.977-.184,1.214,1.214,0,0,0,.28-.215c.016-.016.033-.031.048-.048a1.421,1.421,0,0,0,.207-.3c0-.008.01-.012.014-.02.069,0,.137.008.2.01.233.007.464.008.7,0a1.133,1.133,0,0,0,.089.246c.008.017.017.034.026.049a.578.578,0,0,0,.129.163,1.8,1.8,0,0,0,.307.208l.01.007c-.02.033-.041.066-.06.1-.215.354-.441.7-.683,1.042-.027.037-.056.074-.083.112-.247.339-.5.67-.776.99l-.046.057c-.275.322-.565.629-.862.929-.046.046-.091.093-.138.139-.29.285-.591.558-.9.82l-.083.068c-.049-.208-.1-.417-.141-.627ZM14.588,8.436a6.94,6.94,0,0,1,1.8.825c.125.079.249.144.373.212l-1.048,1.8a1.856,1.856,0,0,1-.42.556.437.437,0,0,1-.454.074c-.176-.11-.2-.424-.21-.716Zm7.482-6.22.041.221c.022.117.04.23.056.342-.055.037-.11.072-.167.105s-.111.068-.169.1c-.084.042-.171.078-.257.112-.057.024-.113.05-.171.07-.1.033-.194.056-.291.079-.051.012-.1.028-.152.038a2.814,2.814,0,0,1-.448.047h-.07a2.987,2.987,0,0,1-.4-.03,3.207,3.207,0,0,1-.913-.269,3.244,3.244,0,0,1-1.024-.752,4.1,4.1,0,0,1,2.361-.83h.1a3.958,3.958,0,0,1,.6.049c.063.009.124.025.187.038a4.007,4.007,0,0,1,.4.1c.07.021.139.046.208.071.123.045.243.1.362.153.065.032.131.062.2.1.03.017.058.038.087.055-.1.047-.21.092-.322.132Zm-.436,2.66a2.024,2.024,0,0,1-2.292.176,2.232,2.232,0,0,1-.208-.935,2.209,2.209,0,0,1,.056-.5l.058.019c.041.015.081.027.122.04.077.024.155.047.233.067l.127.029q.123.025.246.042c.037.006.074.012.112.016a3.5,3.5,0,0,0,.354.02h.082a3.34,3.34,0,0,0,.5-.053c.052-.008.1-.023.155-.034.114-.025.227-.055.339-.091.058-.019.115-.04.172-.061.108-.042.213-.089.318-.14.052-.025.1-.049.155-.077.022-.013.045-.021.067-.034A1.715,1.715,0,0,1,21.634,4.876Zm-2.7.519.006.01L19,5.443a2.246,2.246,0,0,0,1.342.421,2.534,2.534,0,0,0,1.619-.584,2.379,2.379,0,0,0,.753-2.245l0,0-.02-.156-.041-.322c.151-.064.3-.133.444-.2l.233-.109.05-.023a10.238,10.238,0,0,1,.008,2,2.365,2.365,0,0,0,.1,1.432,1.072,1.072,0,0,0,.551.5,3.463,3.463,0,0,1-1.147.558,5.328,5.328,0,0,1-1.185.18c-.292.015-.585.017-.876.007-.118,0-.238-.011-.358-.021a2.1,2.1,0,0,1-1.225-.41,1.075,1.075,0,0,1-.362-.767A.746.746,0,0,1,18.939,5.395Zm3.569,1.932-.081.151c-.029.054-.061.108-.092.161a.2.2,0,0,1-.022-.009,1.293,1.293,0,0,1-.242-.159l-.011-.015a.15.15,0,0,1-.011-.022.219.219,0,0,1-.017-.037.069.069,0,0,0,0-.008C22.2,7.373,22.356,7.353,22.508,7.327ZM18.561,14.64c-.015-.039-.029-.081-.042-.127a7.131,7.131,0,0,1-.283-1.327l.091-.075.113-.09a17.362,17.362,0,0,0,4.119-4.743l.174-.3.037-.063.408.119q-.084.237-.176.47a14.688,14.688,0,0,1-3.615,5.43C19.121,14.18,18.845,14.415,18.561,14.64Zm4.746-5.516c.068-.161.127-.328.19-.493s.137-.337.2-.512l.035.014q.119.049.249.093l.012.005c-.046.151-.095.3-.144.449s-.1.316-.159.471c-.07.193-.148.382-.226.572-.06.149-.117.3-.182.447-.085.193-.179.382-.271.572-.067.139-.131.279-.2.416-.1.2-.215.39-.325.583-.07.124-.136.25-.21.372-.134.222-.278.437-.423.653-.058.088-.112.178-.172.264q-.311.447-.651.873c-.072.091-.151.176-.225.265-.159.191-.317.383-.485.567-.1.113-.211.219-.317.328-.134.139-.266.279-.4.414-.041-.007-.082-.013-.122-.023s-.058-.012-.086-.021a1.531,1.531,0,0,1-.24-.094l-.015-.007-.012-.007a1.765,1.765,0,0,1-.315-.207c.13-.1.252-.213.378-.32s.243-.2.36-.3c.154-.138.3-.284.447-.429.11-.108.223-.213.33-.325.14-.148.273-.3.407-.459.105-.12.214-.236.315-.36s.218-.286.327-.43a15.255,15.255,0,0,0,1.294-2.028c.054-.1.112-.2.163-.3.1-.2.188-.4.279-.6C23.172,9.419,23.244,9.274,23.307,9.124ZM19.976,24.883a20.072,20.072,0,0,1-.491,4.045c-.086.327-.191.652-.294.977a8.55,8.55,0,0,0-.529,2.488v.123c0,.329,0,.669-.185.833a.992.992,0,0,1-.548.163l-2.278.247,0,.262v-.262l-.04-.045a1.738,1.738,0,0,1,.649-.619c.077-.046.156-.091.235-.136a2.607,2.607,0,0,0,1.056-.88,2.724,2.724,0,0,0,.292-1.168c.056-.6.107-1.14.16-1.674.1-1.061.2-2.124.338-3.742a17.64,17.64,0,0,0-.052-3.568c-.016-.165-.032-.324-.046-.482l2.081,0A24.793,24.793,0,0,0,19.976,24.883Zm3.7,6.028a2.726,2.726,0,0,0,.293,1.168,2.6,2.6,0,0,0,1.055.88c.079.045.158.09.235.136a1.609,1.609,0,0,1,.647.641.047.047,0,0,1-.037.023l-2.283-.247a.989.989,0,0,1-.547-.163c-.183-.165-.184-.5-.185-.835l0-.121a8.517,8.517,0,0,0-.528-2.488c-.1-.325-.208-.65-.3-.977a20.143,20.143,0,0,1-.49-4.045,24.644,24.644,0,0,0-.344-3.435l2.081,0c-.014.156-.03.314-.046.478a17.713,17.713,0,0,0-.051,3.566c.132,1.623.236,2.687.339,3.752C23.565,29.778,23.617,30.309,23.672,30.911Zm.118-9.984-3.234,0h0l-3.074,0a26.66,26.66,0,0,1,1.568-4.8l.533,0a4.2,4.2,0,0,0,2.082-.531c.017-.013.034-.026.049-.039a1.363,1.363,0,0,1,.16.058.962.962,0,0,1,.1.042.922.922,0,0,1,.237.182,1.088,1.088,0,0,1,.1.145h0l.041.1.006,0a3.254,3.254,0,0,1,.215.579Zm-1.338-5.578-.019-.012a1.526,1.526,0,0,0-.251-.168.14.14,0,0,1-.016-.01c.022-.02.041-.043.062-.064.081-.079.161-.16.238-.245.034-.037.068-.078.1-.116.066-.078.132-.159.2-.242.016-.022.034-.041.051-.063Zm.074-1.4c-.077.11-.155.213-.234.31a3.1,3.1,0,0,1-1.887,1.249l-.133.023c.071-.073.136-.151.206-.224a17.518,17.518,0,0,0,3.613-5.788c.079-.207.15-.415.22-.625s.142-.409.2-.618l.116.032,0,.072A10.349,10.349,0,0,1,22.526,13.953Zm3.381-2.047a18.3,18.3,0,0,0,.829,4.185,11.127,11.127,0,0,0,.845,2.159,8.421,8.421,0,0,1,.5,1.147,1.18,1.18,0,0,1,.042.93.442.442,0,0,1-.664.143,2.062,2.062,0,0,1-.651-.993c-.038-.09-.076-.179-.115-.265a38.334,38.334,0,0,1-2.245-7.659c.01-.026.018-.053.028-.079a9.913,9.913,0,0,0,.419-1.385,6.281,6.281,0,0,0,.212-1.3c.041.019.089.036.13.058a.926.926,0,0,1,.531.682,8.466,8.466,0,0,1,.127,1.657C25.893,11.427,25.9,11.667,25.907,11.906Zm2.585-4.4a23.464,23.464,0,0,0-3.129.819c-.069-.034-.14-.066-.213-.1,0-.034.005-.068.006-.1l.01-.212-.757-.207-.255-.032-.013.048c-.032-.01-.066-.02-.1-.031s-.058-.021-.087-.033a2.781,2.781,0,0,1-.29-.132l-.279-.107-.038.115-.766-.223c.152-.028.3-.062.437-.1a3.629,3.629,0,0,0,1.927-1.251l-.386-.339c-.142.158-.512.017-.629-.213A1.882,1.882,0,0,1,23.89,4.3a12.321,12.321,0,0,0-.037-2.483l-.037-.326-.3.109c-.12.044-.234.092-.346.142-.014-.009-.03-.016-.044-.026a4.677,4.677,0,0,0-.529-.309l-.076-.036a4.657,4.657,0,0,0-.575-.23l-.065-.019a4.862,4.862,0,0,0-.618-.145c-.014,0-.028,0-.042,0a4.521,4.521,0,0,0-.657-.051h-.108A4.6,4.6,0,0,0,17.579,2.04l-.19.162.153.2a3.469,3.469,0,0,0,.27.312c.031.032.066.062.1.093.068.066.136.129.209.189.041.034.084.065.127.1.069.052.14.1.213.151.047.03.094.059.142.087s.066.043.1.062a1.806,1.806,0,0,0-.152.735,4.275,4.275,0,0,0,.068.807,1.178,1.178,0,0,0-.243.771,1.6,1.6,0,0,0,.55,1.161,2.323,2.323,0,0,0,1.109.476.736.736,0,0,1-.213.178,1.64,1.64,0,0,1-.75.124,2.486,2.486,0,0,0-.817.108,2.563,2.563,0,0,0-1.228,1.273v0c-.12-.066-.242-.137-.363-.214a7.444,7.444,0,0,0-2.082-.932l-.01-.624c-.015-.86-.269-1.371-.754-1.518a1.049,1.049,0,0,0-1.182.66,1.609,1.609,0,0,0-.1.3c-.007.036-.01.072-.016.108-.01.068-.021.134-.026.2,0,.043,0,.084,0,.126,0,.061,0,.122,0,.181s0,.086.005.13c0,.025,0,.052,0,.077-.281-.028-.546-.046-.8-.053V3.7a7.527,7.527,0,0,0,4.176-.979c.317-.192.628-.4.942-.6A7.213,7.213,0,0,1,20.84.523a7.446,7.446,0,0,1,3.6,1.109,15.451,15.451,0,0,0,4.05,1.117Z" transform="translate(-0.001 0.001)" fill="#5e3d9f" fill-rule="evenodd"/>
</svg>
