<svg xmlns="http://www.w3.org/2000/svg" width="37" height="26" viewBox="0 0 37 26">
  <path id="h12" d="M36.987,17.117c-.49,2.454-4.044,4.271-6.152,5.146-2.8,3.058-7.355,3.67-10.128,3.731-.173,0-.337.006-.491.006H20.21c-.709,0-1.179-.036-1.3-.046l-.03,0-.143-.013-.053-.132c-1.952-4.837,2.505-7.482,2.909-7.709a28.737,28.737,0,0,0,2.024-2.077c-1.114-2.5,1.068-4.48,1.091-4.5l.318-.281.071.415a4.78,4.78,0,0,0,.616,1.452c2.143-3.892.406-5.857.1-6.157a4.383,4.383,0,0,1-2.187.567,6.65,6.65,0,0,1-4.261-1.825l-.14-.118.083-.163A3.293,3.293,0,0,1,22.1,3.7a3.655,3.655,0,0,1,1.073.17A3.615,3.615,0,0,1,23.517.094L23.588,0l.132,0a5.439,5.439,0,0,1,2.856,2.406,3.727,3.727,0,0,1,.081,3.465c5.5,1.462,6.38,7.2,6.516,9.265,3.079.085,3.775,1.78,3.8,1.853l.024.063ZM18.97,21.7a1.929,1.929,0,0,1,.258-.149,2.512,2.512,0,0,1,1.089-.254,1.75,1.75,0,0,1,.579.069c.226.08.107.449-.1.41a2.18,2.18,0,0,0-1.372.15,1.965,1.965,0,0,0-.677.582,5.458,5.458,0,0,0,.324,2.994c.2.014.6.035,1.141.035h0c.136,0,.282,0,.433,0a20,20,0,0,0,4.345-.565,5.4,5.4,0,0,0-.3-4.392l-.121-.176q-.111-.16-.225-.3c-.017-.022-.035-.041-.052-.062-.061-.074-.122-.146-.185-.213-.014-.016-.029-.031-.043-.046-.068-.071-.136-.14-.2-.2l-.022-.02a3.832,3.832,0,0,0-2.055-1.027A6.621,6.621,0,0,0,18.97,21.7Zm5.773-9.542a3.454,3.454,0,0,0-.788,3.467c.058-.069.116-.138.171-.206s.114-.139.169-.208c.109-.138.213-.274.315-.411.041-.055.085-.111.126-.167q.207-.285.4-.565c.021-.031.039-.062.06-.094.088-.134.171-.267.251-.4A6.943,6.943,0,0,1,24.743,12.156Zm2.016-.182a15.124,15.124,0,0,0-.766,1.592s-.071.124-.071.124a17.7,17.7,0,0,1-1.852,2.527l-.234.269c-.493.541-1.021,1.095-1.6,1.649.119-.113,1.014.4,1.127.47a6.867,6.867,0,0,1,1.387,1.225s.614-.908.814-1.253c.252-.435.492-.876.714-1.327a15.2,15.2,0,0,0,1.092-2.86,9.511,9.511,0,0,0-.276-6.032,5.241,5.241,0,0,1,.063,2.188A7.643,7.643,0,0,1,26.759,11.974Zm-.444-9.036A5.32,5.32,0,0,0,23.8.5a3.377,3.377,0,0,0,.062,3.678l.458.684-.753-.344A3.535,3.535,0,0,0,22.1,4.161a2.789,2.789,0,0,0-2.277,1.3,6.075,6.075,0,0,0,3.8,1.586,3.815,3.815,0,0,0,2.236-.691A3.494,3.494,0,0,0,26.315,2.938Zm6.4,12.433c-.086-1.771-.787-7.62-6.18-9.056l-.061.084a9.033,9.033,0,0,1,1.562,7.161,14.5,14.5,0,0,1-1.19,3.585c-.275.584-.581,1.155-.906,1.714a14.588,14.588,0,0,0-.889,1.409c.013.02.026.036.038.056a5.621,5.621,0,0,1,.441,4.492,10.605,10.605,0,0,0,4.994-2.9,9.069,9.069,0,0,0,2.2-6.162S32.727,15.609,32.715,15.371Zm.479.226a.148.148,0,0,1,0,.021c0,.039,0,.07,0,.092v.046a10.9,10.9,0,0,1-.6,3.552,9.846,9.846,0,0,1-.544,1.235c-.11.208-.34.823-.568.928,1.813-.84,4.58-2.418,5.028-4.373C36.37,16.824,35.641,15.672,33.194,15.6Zm-10.71,9.068a.686.686,0,1,1,.7-.685A.69.69,0,0,1,22.484,24.665ZM15.4,7.9a28.714,28.714,0,0,0-2.023,2.076c1.113,2.5-1.068,4.48-1.091,4.5l-.318.281-.072-.415a4.78,4.78,0,0,0-.616-1.452c-2.143,3.892-.406,5.858-.1,6.158a4.387,4.387,0,0,1,2.188-.567,6.653,6.653,0,0,1,4.261,1.824l.14.119-.084.162A3.291,3.291,0,0,1,14.9,22.3a3.653,3.653,0,0,1-1.072-.17,3.611,3.611,0,0,1-.342,3.771l-.07.089L13.279,26a5.441,5.441,0,0,1-2.856-2.407,3.728,3.728,0,0,1-.081-3.464c-5.5-1.463-6.379-7.2-6.516-9.266C.748,10.779.052,9.084.023,9.01L0,8.948l.013-.066C.5,6.428,4.056,4.611,6.165,3.736,9.142.488,14.094,0,16.789,0c.811,0,1.309.046,1.33.048l.143.014.053.131C20.267,5.033,15.806,7.678,15.4,7.9Zm-3.148,5.94a3.455,3.455,0,0,0,.787-3.466l-.171.2c-.056.069-.113.139-.167.207-.111.14-.217.279-.32.417-.04.054-.082.107-.121.16-.139.191-.273.381-.4.569-.017.026-.032.052-.049.078-.092.139-.178.277-.261.414A6.949,6.949,0,0,1,12.257,13.843Zm-1.251-1.41s.071-.124.071-.124A17.73,17.73,0,0,1,12.93,9.783l.233-.27c.494-.541,1.022-1.095,1.6-1.649a4.63,4.63,0,0,1-2.527-1.726c.032.041-.706,1.121-.772,1.235-.266.457-.518.922-.751,1.4a15.262,15.262,0,0,0-1.091,2.886,9.294,9.294,0,0,0,.284,5.99C9.607,16.488,9.66,14.76,11.006,12.433Zm-.321,10.629A5.321,5.321,0,0,0,13.2,25.5a3.428,3.428,0,0,0-.061-3.678l-.463-.685.758.346a3.546,3.546,0,0,0,1.464.353,2.763,2.763,0,0,0,2.279-1.3,6.082,6.082,0,0,0-3.8-1.586,3.814,3.814,0,0,0-2.236.69A3.493,3.493,0,0,0,10.685,23.062ZM.49,8.9c.139.274.868,1.426,3.315,1.5v-.02c0-.04,0-.071,0-.094v-.045a11.057,11.057,0,0,1,.507-3.25A10.334,10.334,0,0,1,4.875,5.6c.117-.237.4-.958.644-1.071C3.7,5.369.938,6.946.49,8.9ZM6.475,4.086a9.079,9.079,0,0,0-2.2,6.163s0,.141.011.378c.085,1.773.787,7.622,6.179,9.057l.062-.083c-.045-.059-.084-.118-.127-.177-.059-.08-.118-.16-.173-.24a9.043,9.043,0,0,1-1.267-6.722,17.228,17.228,0,0,1,2.727-6.347l.051-.075.131-.194.081-.114c-.013-.02-.026-.036-.039-.056a5.621,5.621,0,0,1-.44-4.492A10.593,10.593,0,0,0,6.475,4.086Zm11.54.253L18.03,4.3a2.044,2.044,0,0,1-.258.149,2.529,2.529,0,0,1-1.09.253,1.73,1.73,0,0,1-.579-.069c-.225-.079-.106-.449.1-.409a2.177,2.177,0,0,0,1.371-.151c.7-.351.769-.865.756-1.583A5.954,5.954,0,0,0,17.93.5c-.2-.013-.6-.035-1.141-.035a20.186,20.186,0,0,0-4.778.571c-.839,2.446-.024,5.29,2.568,6.288.66.254.885.031,1.393-.354a6.879,6.879,0,0,0,.839-.751A5.812,5.812,0,0,0,18.015,4.339ZM14.515,2.7a.686.686,0,1,1,.695-.685A.69.69,0,0,1,14.515,2.7Z" fill="#8cbc50" fill-rule="evenodd"/>
</svg>
