<svg xmlns="http://www.w3.org/2000/svg" width="35.999" height="34.999" viewBox="0 0 35.999 34.999">
  <path id="h2" d="M36,0l0,.631a6.594,6.594,0,0,1-.748,3.711,2.692,2.692,0,0,1-2.523,1.289,2.45,2.45,0,0,1-1.465.211c2.429,1.044.935,4.454,2.364,6.148.6.354.932.6.946.605l.055.041.029.062a1.568,1.568,0,0,1-.729,1.931,3.173,3.173,0,0,1-2.253.178l-.049,0a14.97,14.97,0,0,1-1.518-.232c-.587-.064-1.176-.115-1.762-.185,1.435,6.207-1.585,12.544-.088,18.741A1.4,1.4,0,0,1,29.4,34.75L29.388,35H24.854l-.094-2.15.117,0a35.121,35.121,0,0,1-.407-7.623A6.712,6.712,0,0,1,22.3,23.175a7.187,7.187,0,0,1-3.813.578,8.685,8.685,0,0,1-2.153,2.316c-.878.646-1.912,1.062-2.745,1.772-1.579,1.346-1.652,3.573-1.6,5.5l.074.025.054.022c.467.265.41,1.321.408,1.366L12.514,35H8.074l-.093-2.133a11.273,11.273,0,0,1-.3-3.485A9.053,9.053,0,0,1,8.944,26.1a4.058,4.058,0,0,0,.29-3.38c-.384-1.144-1.026-2.178-1.459-3.3-.858,1.511-1.881,3.668-3.763,4.031C1.936,23.849,1.079,21.681,1,20a1.928,1.928,0,0,1-.912-2.2c.206-.612,1.377-1.615.865-2.31l-.539-.729.846.321A2.947,2.947,0,0,1,2.6,16.223a2.722,2.722,0,0,1-.317,3.549A1.77,1.77,0,0,0,4.367,21.13c.817-.278,1.149-1.246,1.44-1.973l.1-.238A11.069,11.069,0,0,1,7.838,15.8c.926-1.543,2.915-2.115,4.6-2.221,2.048-.131,4.341.258,6.17-.909,1.621-1.034,2.487-2.891,3.586-4.4a8.006,8.006,0,0,1,3.615-2.952,2.1,2.1,0,0,1,1.012-1.981,3.744,3.744,0,0,1,2.467-.088,3.238,3.238,0,0,0,2.776-.394A19.911,19.911,0,0,0,34.207.666l.451-.439,0,.631c0,.179,0,.365,0,.552.291-.331.581-.664.9-.971ZM2.523,17.438a2.655,2.655,0,0,0-.937-1.55c-.027.848-.746,1.327-1,2.076h0c-.142.423-.042.124,0,0a1.4,1.4,0,0,0,1,1.709A2.1,2.1,0,0,0,2.523,17.438Zm4.848-.158a10.376,10.376,0,0,0-.977,1.841l-.1.235c-.369.922-.826,2.057-1.9,2.317a2.288,2.288,0,0,1-2.555-1.531c-.013.01-.026.018-.038.028l-.083.06-.1-.012c-.028,0-.056-.007-.085-.011.087,1.2.63,2.83,2.106,2.749,1.333-.073,2.137-1.3,2.777-2.318-.111.178-.249.4.007-.011.147-.235.087-.14.005-.009.348-.556.749-1.21,1.111-1.88A4.44,4.44,0,0,1,7.371,17.28Zm24.406-2.994a4.941,4.941,0,0,0,.673.1,2.119,2.119,0,0,1-.878-1.242c-.035-.143-.122-1.13.283-.767.14.127.072.488.111.662a1.682,1.682,0,0,0,.266.608,1.965,1.965,0,0,0,1.044.669,1.575,1.575,0,0,0,.481-.208h0c.072-.05.037-.025,0,0a1.037,1.037,0,0,0,.442-1.123c-.122-.085-.429-.293-.881-.557a2.16,2.16,0,0,0-1.962-.144A1.8,1.8,0,0,0,31.777,14.286Zm-.8-.123a2.5,2.5,0,0,1-.093-2.114c.259-.589,1.4-.515,1.91-.388a8.826,8.826,0,0,1-.485-2.949c0,.025,0,.036,0,0-.079-.8-.014-.138,0,0-.1-.995-.442-2.247-1.569-2.482-1.408-.292-1.327,1.49-2.342,1.968-.963.453-2.369-.419-3.178.355a1.036,1.036,0,0,0,.995,1.745l.168.5c-.784.278-.814,1.4-.4,1.986a2.792,2.792,0,0,0,1.787.992l.157.03.015,0,.1.011C29.018,13.955,30.008,13.982,30.973,14.163Zm-3.3,20.3h1.2c-.019-.775-.889-.935-1.537-1A1.578,1.578,0,0,1,27.676,34.468Zm-.007-1.5C27.022,30,27.4,26.8,27.764,23.7c-.091.769-.18,1.515,0-.019.369-3.118.749-6.337.055-9.254a6.577,6.577,0,0,0-.682,1.839,5.616,5.616,0,0,0,.371,2.351c.473,1.721.061,3.429-.176,5.152a30.236,30.236,0,0,0-.145,9.142A3.374,3.374,0,0,1,27.669,32.97Zm-2.308,1.5h1.781c-.01-.193-.037-.55-.225-.669a4.283,4.283,0,0,0-1.6-.414Zm-14.546,0H12a1.359,1.359,0,0,0-.136-.612l-.073-.026-.077-.026-.233-.08a4.768,4.768,0,0,0-.922-.252A1.45,1.45,0,0,1,10.815,34.468Zm-.335-1.54a4.12,4.12,0,0,1,.978.225,8.973,8.973,0,0,1,.711-4.364c.774-1.489,2.263-2.078,3.585-2.96-.055.037-.073.049,0,0,.615-.411.163-.109,0,0a8.073,8.073,0,0,0,2.16-2.157,7.016,7.016,0,0,1-1.309-.391c-.907,1.971-3.182,2.68-4.64,4.129S10.345,30.993,10.48,32.928Zm-1.9,1.54h1.7c0-.181.033-.536-.138-.663a7.052,7.052,0,0,0-1.611-.419Zm14.048-25.9c-.772,1.058-1.41,2.214-2.258,3.216A5.994,5.994,0,0,1,16.7,13.923c-2.59.434-5.917-.488-7.986,1.611-2.392,2.426,1.123,5.739,1.312,8.352.123,1.7-1.054,2.872-1.565,4.382a8.677,8.677,0,0,0,.058,4.578,5.414,5.414,0,0,1,1.449.341.092.092,0,0,1,0-.017l-.02-.249h0c-.137-2.036.079-4.27,1.563-5.807,1.436-1.487,3.942-2.217,4.709-4.282l.1-.27.26.122a6.675,6.675,0,0,0,5.7-.087l.216-.11.128.207a6.18,6.18,0,0,0,2.253,2.148l.149.083-.014.171a34.277,34.277,0,0,0,.4,7.756,4.426,4.426,0,0,1,1.269.275l-.038-.2h.01a31.527,31.527,0,0,1,.209-9.592,24.224,24.224,0,0,0,.352-2.814,8.364,8.364,0,0,0-.427-2.5,5.039,5.039,0,0,1,.547-3.8c-1.418-.379-2.9-1.9-1.813-3.407a1.572,1.572,0,0,1,.265-3.072c.765-.1,1.77.35,2.468-.076.656-.4.658-1.366,1.342-1.782a6.411,6.411,0,0,0-1.272-.307C27.617,5.917,27.91,7,27.1,7.185c-.811.16-1.211-.631-1.273-1.31A7.577,7.577,0,0,0,22.629,8.572Zm8.585-4.717c-1.25.334-2.456-.434-3.7-.2-1.156.22-1.38,1.547-1.093,2.54.07.242.267.527.559.475.2-.035.242-.319.28-.478a1.532,1.532,0,0,1,.914-1.139l.065-.027h.013a3.442,3.442,0,0,1,2.193.081c-.051-.014-.075-.021,0,0,1.144.322,2.169.32,2.936-.716a4.931,4.931,0,0,0,.737-2.868A6.489,6.489,0,0,1,31.214,3.855Zm3.4-1.608a4.465,4.465,0,0,1-1.1,2.809,2.605,2.605,0,0,0,1.611-1.635A6.375,6.375,0,0,0,35.461,1.3C35.176,1.613,34.9,1.938,34.613,2.247ZM15.758,25.826l0,0,.005,0ZM31.305,8.3a.685.685,0,0,1,0,1.369A.685.685,0,0,1,31.305,8.3Zm1,.408a0,0,0,0,1,0,0,.043.043,0,0,1,0-.005Zm1.486,4.342c.6.024.143.841-.18.823C33.243,13.853,33.277,13.029,33.79,13.051Zm0,0C33.218,13.027,34.338,13.073,33.79,13.051Zm-.033,1.056h0a0,0,0,0,0,0,0A0,0,0,0,1,33.757,14.107ZM6.429,20.627l-.007.011.012-.02ZM.587,17.964Z" transform="translate(-0.001)" fill="#5e3d9f" fill-rule="evenodd"/>
</svg>
