<svg xmlns="http://www.w3.org/2000/svg" width="33.004" height="34.999" viewBox="0 0 33.004 34.999">
  <path id="h3" d="M32.442,11.029l-.149.7c-.119.562-.908.38-1.166.059a2.37,2.37,0,0,1-.192-1.917l.04-.24a12.006,12.006,0,0,0-.523-5.847C29.9,2.2,28.8.37,26.825.509A3.618,3.618,0,0,0,26,.235,4.461,4.461,0,0,0,23.022.28a3.1,3.1,0,0,0-1.659,2.527l-.032.218.213.071.1.031a3.62,3.62,0,0,0,2.6,4.565c-.058.276-.141.629-.468.7-.435.089-.885.122-1.325.179a1.949,1.949,0,0,0-1.689.876,5.784,5.784,0,0,0-.61,2.057c-.084.531,0,1.774-.573,2.064A4.322,4.322,0,0,1,18.1,12.216l-.135-.168c-.365-.464-.794-1.167-1.441-1.263a1.2,1.2,0,0,0-1.328,1.17,1.08,1.08,0,0,0-.206.19l-.058.071a4.487,4.487,0,0,1-1.45,1.342c-.564-.093-.529-1.527-.589-1.922a6.508,6.508,0,0,0-.57-2.086,1.8,1.8,0,0,0-1.564-.958c-.47-.064-.943-.109-1.41-.186-.388-.064-.494-.366-.566-.711a3.62,3.62,0,0,0,2.6-4.568l.1-.031.213-.071-.031-.218A3.1,3.1,0,0,0,10.005.28,4.449,4.449,0,0,0,7.023.235,3.626,3.626,0,0,0,6.2.509c-1.9-.136-3,1.568-3.562,3.1a12,12,0,0,0-.588,6.028l.04.24A2.366,2.366,0,0,1,1.9,11.791c-.257.321-1.046.5-1.165-.059l-.15-.7-.351.631C-.6,13.16.933,14.7,2.444,14.7a3.36,3.36,0,0,0,1.146-.208A2.974,2.974,0,0,0,5.354,17.15L3.318,22.623l.155.118a6.288,6.288,0,0,0,1.7.815l.094,2.315c.017.424-.3.829-.343,1.268a7.655,7.655,0,0,0,.153,2.041c.249,1.391.655,2.76,1.01,4.127-.063.015-.127.023-.19.041l-.164.045-.029.164A2.363,2.363,0,0,0,5.789,34.7l.058.176L9.155,35h.023a.556.556,0,0,0,.29-.092L11.942,35h.022c.722,0,.656-.816.19-1.111a4.485,4.485,0,0,0-1.841-.645l0-6.857.477-2.731a14.588,14.588,0,0,0,2.53-.883l.227-.1-2.649-7.007a13.452,13.452,0,0,0,.517-1.308c.37,1.065,1.2,1.835,2.408,1.41a8.247,8.247,0,0,0,2.731-1.917,8,8,0,0,0,2.657,1.917c1.2.425,2.038-.345,2.409-1.41a13.2,13.2,0,0,0,.517,1.308l-2.65,7.007.227.1a14.717,14.717,0,0,0,2.531.884l.472,2.685v6.9a4.475,4.475,0,0,0-1.84.645c-.467.295-.532,1.111.189,1.111l2.5-.092a.559.559,0,0,0,.291.092l3.33-.122.058-.176a2.351,2.351,0,0,0,.085-1.144l-.029-.164-.163-.045c-.063-.018-.127-.026-.191-.041.355-1.367.761-2.736,1.01-4.127a8.079,8.079,0,0,0,.162-1.937c-.032-.476-.37-.92-.352-1.372l.094-2.315a6.288,6.288,0,0,0,1.7-.815l.156-.118L27.673,17.15a2.982,2.982,0,0,0,1.767-2.655A2.792,2.792,0,0,0,32.374,14a2.045,2.045,0,0,0,.419-2.344ZM27.8,4l0,0a3.645,3.645,0,0,1-2.033-1.495A3.3,3.3,0,0,0,26.633,1l.013.007a3.322,3.322,0,0,1,1.7,3.165C28.2,4.134,28.01,4.078,27.8,4ZM24.443.533a5.276,5.276,0,0,1,1.68.293c-.5,1.852-2.369,2.264-4.087,1.854l-.007,0c-.034-.007-.065-.015-.094-.023A2.339,2.339,0,0,1,24.443.533Zm-2.4,3.606a3.419,3.419,0,0,1,.117-.89,6.243,6.243,0,0,0,1.157.115,3.8,3.8,0,0,0,2.016-.521,4.159,4.159,0,0,0,2.09,1.583A2.854,2.854,0,0,1,24.585,7.2h0A2.932,2.932,0,0,1,22.041,4.139ZM8.4,7.207a2.251,2.251,0,0,1-1.037-.184h0a3.045,3.045,0,0,1-1.751-2.6A4.161,4.161,0,0,0,7.7,2.843a4.418,4.418,0,0,0,3.173.406c.454,1.69-.526,3.828-2.473,3.958C8.308,7.214,9.869,7.109,8.4,7.207ZM6.38,1.008,6.393,1a3.3,3.3,0,0,0,.869,1.5A4.046,4.046,0,0,1,4.68,4.173,3.476,3.476,0,0,1,6.38,1.008Zm2.2-.475a2.339,2.339,0,0,1,2.508,2.122C9.35,3.09,7.421,2.732,6.9.826A5.285,5.285,0,0,1,8.583.533ZM1.372,13.9a1.645,1.645,0,0,1-.808-1.511,1.282,1.282,0,0,0,1.776-.294,2.857,2.857,0,0,0,.283-2.306l-.039-.235A11.463,11.463,0,0,1,2.9,4.54c.371-1.274.978-2.88,2.367-3.379A4.551,4.551,0,0,0,4.137,4.513l.005.313.314-.056a5.728,5.728,0,0,0,.619-.158,3.6,3.6,0,0,0,1.9,2.819c-.064.978-.68,1.2-1.628,1.376-.635.117-1.473.168-1.746.851a5.682,5.682,0,0,0-.219,1.918l-.006.242c0,.088-.006.177-.006.266l.007.228h.007a14.851,14.851,0,0,0,.124,1.645,2.487,2.487,0,0,1-2.136-.06ZM5.608,26.631a1.316,1.316,0,0,0,.2-.781l-.086-2.131a9.371,9.371,0,0,0,1.8.271l-.407,2.351V33.2a4.546,4.546,0,0,0-.495.013c-.378-1.456-.823-2.917-1.059-4.4a3.494,3.494,0,0,1,.047-2.183Zm3.611-2.695c.334-.037.668-.085,1-.15l-.443,2.555V33.2a4.228,4.228,0,0,0-.49.032,34.028,34.028,0,0,1-1.143-5.017,4.311,4.311,0,0,1,.011-1.263c.079-.391.33-.677.313-1.1L8.39,24C8.666,23.989,8.945,23.966,9.219,23.936ZM8.1,30.821c.159.622.485,1.88.648,2.509q-.034.007-.069.018l-.164.046-.013.076a4.456,4.456,0,0,0-.852-.217l0-4.61A19.714,19.714,0,0,0,8.1,30.821C8.263,31.443,8.088,30.762,8.1,30.821ZM7.891,25l.035.867c.014.328-.2.561-.276.867v-.352Zm-1.677,8.81A3.493,3.493,0,0,1,9.2,34.46a.027.027,0,0,1-.018.01v.011h0V34.47l-2.923-.108a1.866,1.866,0,0,1-.039-.548C6.3,33.8,6.2,34,6.214,33.814Zm5.75.656v.265l0-.265-2.215-.082a.086.086,0,0,0,0-.016c-.032-.3-.312-.451-.555-.587h0a3.731,3.731,0,0,1,2.8.66C11.987,34.47,11.971,34.47,11.964,34.47ZM10.487,23.186a10.748,10.748,0,0,1-2.377.288h-.1l-.186,0a7.7,7.7,0,0,1-3.861-1.042l1.891-5.081.181.065.319.117a7.475,7.475,0,0,0,2.506.584,1,1,0,0,0,.689-1.686l.983-.009.043-.081,2.288,6.054a13.837,13.837,0,0,1-2.376.794ZM5.232,11.58c-.1-1.159,3.032-1.019,2.792-.052l-.014.045.512.165.017-.055c.351-1.025,2.774-1.395,2.915-.115a5.32,5.32,0,0,1-.311,1.855,12.606,12.606,0,0,1-.783,2.123l-.073.158c-.029.063-.058.126-.088.189h-.038l-2.082.019a4.638,4.638,0,0,1-1.933-.869l-.007-.024c-.3-1.109-.652-2.217-.9-3.338-.005-.038-.008-.072-.011-.1Zm9.309,3.2c-.484.328-1.192.787-1.8.515-.661-.294-.819-1.107-1.02-1.712l-.034-.1c.228-.86.7-2.255-.217-2.875a2.562,2.562,0,0,0-3.071.3c-.691-1.033-3.823-.93-3.7.659a1.293,1.293,0,0,0,.021.22,17.775,17.775,0,0,0,.331,1.917,3.067,3.067,0,0,0,.672,1.674,5.06,5.06,0,0,0,2.258,1.052l.035.009h0c.333.085,1.013.089,1.188.43.153.3.046.713-.345.713a6.936,6.936,0,0,1-2.312-.549l-.327-.119c-.142-.051-.286-.1-.427-.159l-.008,0a2.334,2.334,0,0,1-1.29-.944,4.975,4.975,0,0,1-.418-1.669l-.009-.063a14.4,14.4,0,0,1-.149-2v-.1c0-.1,0-.2,0-.3h0v-.1A7.693,7.693,0,0,1,4.057,10c.137-.579.88-.582,1.371-.672,1.054-.2,1.952-.547,2.072-1.7a2.919,2.919,0,0,0,.737.109,1.419,1.419,0,0,0,.621,1.067,5,5,0,0,0,1.613.28,1.744,1.744,0,0,1,1.133.361,2.8,2.8,0,0,1,.561,1.255,13.876,13.876,0,0,1,.248,1.4,3.422,3.422,0,0,0,.373,1.541c.831,1.135,2.022-.436,2.564-1.1l.018-.023a5.775,5.775,0,0,0,.773.979,12.867,12.867,0,0,1-1.6,1.278C13.343,15.592,14.824,14.59,14.541,14.781Zm7.816-3.929c.775-.177,1.84-.021,2.13.831l.018.055.511-.165L25,11.532c-.249-.945,2.65-1.092,2.8-.043,0,.039-.007.108-.019.2-.256,1.116-.6,2.219-.893,3.325l-.006.024a4.654,4.654,0,0,1-1.934.869l-2.119-.019c-.029-.061-.058-.122-.086-.183l-.076-.164a13.243,13.243,0,0,1-.925-2.69c-.184-.8-.434-1.766.616-2C22.834,10.743,22.043,10.923,22.357,10.852Zm1.351,13.075c.306.036.619.061.928.071l-.074,1.851c-.018.428.234.714.312,1.106a4.394,4.394,0,0,1,0,1.34,35.632,35.632,0,0,1-1.134,4.939,4.245,4.245,0,0,0-.491-.032l0-6.9-.438-2.511C23.107,23.845,23.407,23.891,23.708,23.927Zm1.33,9.394a4.367,4.367,0,0,0-.517.149l-.014-.076-.163-.046-.07-.018a41.973,41.973,0,0,0,1.1-4.667v4.59C25.26,33.27,25.148,33.295,25.038,33.321Zm.287-6.736a1.787,1.787,0,0,1-.225-.714l.036-.877.237,1.347v.384Zm-2.046,7.8-2.215.082,0,.265V34.47l-.023-.053a3.835,3.835,0,0,1,2.8-.632C23.594,33.927,23.3,34.072,23.279,34.388Zm3.494-.026-2.9.107-.049-.052h0a3.752,3.752,0,0,1,.587-.329h0a3.853,3.853,0,0,1,2.4-.274A1.8,1.8,0,0,1,26.773,34.362Zm.328-3.831c-.138.541-.519,2.01-.695,2.686a4.54,4.54,0,0,0-.5-.013l0-6.907-.4-2.307a9.361,9.361,0,0,0,1.8-.271l-.086,2.13c-.021.52.334.974.358,1.507a11.125,11.125,0,0,1-.478,3.175Zm.41-7.419a8.67,8.67,0,0,1-2.309.359l-.186,0h-.1a10.755,10.755,0,0,1-2.377-.288h0a13.79,13.79,0,0,1-2.374-.794l2.289-6.054.042.081.982.009a1.01,1.01,0,0,0,.553,1.678,6.222,6.222,0,0,0,2.643-.576l.319-.117.182-.065,1.89,5.081a6.607,6.607,0,0,1-1.552.683C26.788,23.331,28.286,22.876,27.511,23.112Zm.84-7.039a3.544,3.544,0,0,1-1.546.844l-.326.119a6.941,6.941,0,0,1-2.313.549c-.34,0-.468-.314-.388-.6.127-.456.849-.444,1.232-.542h0l.035-.009a5.124,5.124,0,0,0,2.268-1.059l.058-.052c.47-.478.811-2.587.922-3.485a1.208,1.208,0,0,0,.036-.336c.053-.713-.9-1.127-1.479-1.213a2.347,2.347,0,0,0-2.224.623,2.561,2.561,0,0,0-3.071-.3c-.922.62-.444,2.015-.217,2.875l-.029.089c-.2.589-.34,1.331-.93,1.676-.567.331-1.248-.049-1.73-.356a11.506,11.506,0,0,1-1.742-1.439A3.965,3.965,0,0,1,15.762,12.1a.562.562,0,0,1-.026-.1l-.005-.03a.638.638,0,0,1,.884-.6,3.58,3.58,0,0,1,.921,1l.14.176c.506.617,1.638,2.152,2.48,1.2a2.388,2.388,0,0,0,.412-1.319c.074-.531.142-1.063.261-1.586a3.6,3.6,0,0,1,.46-1.227,1.316,1.316,0,0,1,1.086-.506,8.483,8.483,0,0,0,1.663-.247,1.336,1.336,0,0,0,.752-1.124,2.912,2.912,0,0,0,.736-.109c.121,1.152,1.018,1.5,2.072,1.7.408.075,1.165.086,1.333.543a5.463,5.463,0,0,1,.174,1.711l0,.1c0,.1,0,.2,0,.3v.1a14.824,14.824,0,0,1-.156,2.051,3.745,3.745,0,0,1-.6,1.939Zm3.3-2.175a2.493,2.493,0,0,1-2.137.06,14.833,14.833,0,0,0,.124-1.644h.013v-.229c0-.088,0-.175-.006-.262l-.006-.245a5.623,5.623,0,0,0-.219-1.917c-.273-.684-1.111-.734-1.745-.852-.948-.176-1.565-.4-1.628-1.376a3.6,3.6,0,0,0,1.9-2.819,5.686,5.686,0,0,0,.62.158l.314.056,0-.313a4.582,4.582,0,0,0-1.126-3.352c1.389.5,1.995,2.105,2.366,3.379a11.479,11.479,0,0,1,.314,5.012l-.04.235a2.853,2.853,0,0,0,.284,2.306,1.281,1.281,0,0,0,1.775.294,1.642,1.642,0,0,1-.807,1.511Z" transform="translate(0.002 0)" fill="#5e3d9f" fill-rule="evenodd"/>
</svg>
