<svg xmlns="http://www.w3.org/2000/svg" width="26.999" height="36.001" viewBox="0 0 26.999 36.001">
  <path id="h4" d="M27,9c.125-6.761-5.357-7.769-5.411-7.779l-.748-.151.511.574A5.06,5.06,0,0,1,22.725,6.1a6.329,6.329,0,0,0-1.476-2.257l-.287-.257-.121.369c-1.813,5.569.186,9.154.506,9.673-.086.208-.163.419-.235.626l-.032.092c-.147.425-.315.839-.492,1.241a1.118,1.118,0,0,0-.353-.06c-.789.019-1.246.77-1.511,1.428a3.721,3.721,0,0,1-1.418,1.9,18.41,18.41,0,0,0-1.594-6.189A30.717,30.717,0,0,1,20.466.7l.5-.7-.8.308c-3.1,1.2-4.893,7.781-5.519,10.548a6.437,6.437,0,0,0-1-1.135L13.5,9.592l-.158.128a6.233,6.233,0,0,0-.915,1.022C11.71,7.609,9.948,1.478,6.931.308L6.134,0l.5.7a30.793,30.793,0,0,1,4.728,11.8,18.232,18.232,0,0,0-1.675,6.358,4.038,4.038,0,0,1-1.48-2.049c-.3-.7-.949-1.506-1.8-1.22-.177-.4-.344-.815-.492-1.24l-.033-.1c-.071-.2-.148-.415-.233-.622.319-.519,2.318-4.1.5-9.673l-.12-.369-.287.257A6.307,6.307,0,0,0,4.275,6.088,5.1,5.1,0,0,1,5.643,1.645l.511-.574-.748.151A6.818,6.818,0,0,0,1.561,3.805,8.276,8.276,0,0,0,.012,8.387,4.578,4.578,0,0,0,2.7,13.032c-.46,1.71,1.368,3.424,2.765,3.963-.008,1.937,2.625,2.93,4.124,3.308-.007.181-.01.367-.014.554-1.005-.643-2.022-1.272-3.071-1.838-.6-.326-1.552-.975-2.28-.863a5.573,5.573,0,0,0-2.212,1.076c-.541.385-1.705,1.242-1.327,2.057l.133.286.248-.191a9.931,9.931,0,0,1,1.989-1.213A2.064,2.064,0,0,1,4.8,20.119a20.56,20.56,0,0,1,4.793,2.549v0c-.9-.314-1.813-.618-2.732-.885A9.606,9.606,0,0,0,4.618,21.3,2.6,2.6,0,0,0,2.7,22.57c-.513.687-1.106,1.818-.606,2.662l.229.388.211-.4c.4-.757,1.129-2.141,2.041-2.327a2.721,2.721,0,0,1,1.113.162c.779.2,1.544.461,2.3.728a3.052,3.052,0,0,0-1.766-.069,2.4,2.4,0,0,0-1.009,1.359c-.408,1.026-.831,2.807.058,3.709l.324.33.1-.455a12.02,12.02,0,0,1,1.06-3.315,18.766,18.766,0,0,1,3.149.781l.035.265c.043.3.091.607.141.909l.009.058c.023.134.044.268.067.4l.068.4c.074.4.157.816.245,1.235h0l.082.377h0l0,.02h0l0,.008h0l0,.009h0l0,.008h0v.009h0v0h0l.027.127c.05.222.1.448.155.676h0l.04.169h0l.086.36,0,.012h0l0,.017h0l.03.127.048.189c.061.239.126.483.191.727-.522.816-1.132,2.213-.7,3.19.509,1.145,1.684-.174,2.021-.731.117.5.391,1.316,1.021,1.316s.9-.814,1.02-1.316c.338.558,1.513,1.875,2.022.731.434-.977-.176-2.373-.7-3.19.064-.242.129-.484.19-.727v0l.047-.187h0c0-.01.005-.02.007-.03l.024-.1h0l0-.018h0l0-.019.083-.35h0l.079-.332h0q.062-.258.117-.512l.029-.133h0v0h0v0h0v0h0l0-.008h0l0-.01h0l0-.02h0l.012-.051.058-.261h0l.014-.064h0c.088-.419.171-.832.246-1.235l.067-.4c.024-.133.044-.267.067-.4l.01-.058c.05-.3.1-.6.141-.909h0l.035-.265a20.739,20.739,0,0,1,3.153-.794A12.583,12.583,0,0,1,21.3,28.659l.1.455.325-.33c.888-.9.466-2.682.057-3.709a2.4,2.4,0,0,0-1.009-1.359,3.042,3.042,0,0,0-1.763.069c.72-.253,1.444-.5,2.181-.695a3.422,3.422,0,0,1,1.19-.2c.468.051.87.558,1.144.9a9.035,9.035,0,0,1,.94,1.434l.21.4.23-.389c.471-.8-.042-1.856-.509-2.527-.448-.643-1.171-1.437-2.018-1.4a9.156,9.156,0,0,0-2.089.439c-.971.277-1.931.6-2.886.929v0a20.56,20.56,0,0,1,4.793-2.549,2.067,2.067,0,0,1,1.742.053,9.938,9.938,0,0,1,1.988,1.212l.248.191.133-.286c.362-.778-.7-1.595-1.216-1.977a5.681,5.681,0,0,0-2.323-1.156,4.191,4.191,0,0,0-2.144.79c-1.1.584-2.158,1.241-3.207,1.911,0-.187-.006-.373-.013-.555,1.5-.377,4.132-1.37,4.124-3.307,1.4-.538,3.225-2.254,2.765-3.963A4.332,4.332,0,0,0,27,9ZM19.435,1.352A31.568,31.568,0,0,0,15.321,11.9q-.137-.243-.279-.471c.844-3.961,2.392-8.383,4.393-10.082ZM13.5,10.268a11.626,11.626,0,0,1,2.727,5.284,23.928,23.928,0,0,1,.678,6.97l0,.105c-.012.341-.036.68-.06,1.02a4.854,4.854,0,0,0-6.681,0c-.024-.342-.048-.684-.059-1.026l0-.1c-.136-3.737.322-7.84,2.418-11.021l0,0a7.674,7.674,0,0,1,.983-1.23C13.709,10.478,13.3,10.465,13.5,10.268Zm-1.465,1.039c-.094.147-.187.3-.277.455a31.611,31.611,0,0,0-4.1-10.426c2.465,2.042,3.927,7.9,4.377,9.971C11.938,11.454,11.582,9.239,12.032,11.307ZM.5,9c0-4.754,2.835-6.474,4.24-7.034a5.35,5.35,0,0,0-.7,5.089l.3.636.172-.685A6.2,6.2,0,0,1,5.8,4.525a11.659,11.659,0,0,1-.424,8.541c-.483-.8-1.772-1.416-2.458-.488A3.806,3.806,0,0,1,.5,9C.5,4.247.5,10.6.5,9Zm2.8,5.221c-.256-.657-.195-1.732.75-1.562.818.148,1.111,1.069,1.351,1.76l.033.1c.158.454.335.9.526,1.33a1.614,1.614,0,0,0-.414.638A4.1,4.1,0,0,1,3.3,14.222C3.129,13.773,3.695,15.229,3.3,14.222Zm2.665,2.844a.97.97,0,0,1,.663-1.015c.462-.094.828.369,1.011.734a10.657,10.657,0,0,0,.743,1.536A3.822,3.822,0,0,0,9.637,19.43c-.009.116-.016.233-.023.352-1.241-.324-3.519-1.135-3.645-2.716C5.964,17,6.016,17.653,5.969,17.066ZM4.135,19.408a4.974,4.974,0,0,0-2.851,1.2,6.29,6.29,0,0,1,3.051-1.943c.56,0,2.512,1.043,5.233,2.8,0,.19,0,.381.006.576a20.119,20.119,0,0,0-5.439-2.625Zm.545,2.966c-1,0-1.785,1.261-2.252,2.014A3.574,3.574,0,0,1,3.66,22.266a1.473,1.473,0,0,1,1.407-.4,28.885,28.885,0,0,1,4.551,1.352q.018.313.042.627A22.721,22.721,0,0,0,4.68,22.374Zm2.077,2.457c-.429,0-.608.512-.744.85a15.4,15.4,0,0,0-.656,2.2,4.174,4.174,0,0,1,.958-3.625c.312-.252.907-.1,1.264-.031a17.724,17.724,0,0,1,2.168.58q.036.381.085.76A16.228,16.228,0,0,0,6.757,24.831Zm4.32,10.51c-.707,0,.186-2.29.32-2.537l.009,0a4.115,4.115,0,0,0,1.212.2,4.867,4.867,0,0,1-.634,1.51C11.807,34.795,11.457,35.341,11.077,35.341Zm2.421.147c-.211,0-.551-.563-.63-1.581a5.428,5.428,0,0,0,.272-.874q.357.009.716,0a5.319,5.319,0,0,0,.272.873C14.049,34.925,13.708,35.488,13.5,35.488Zm2.476-.158c-.277.12-.665-.4-.8-.57a4.689,4.689,0,0,1-.8-1.75,4.142,4.142,0,0,0,1.211-.2l.01,0a4.766,4.766,0,0,1,.511,1.453C16.15,34.491,16.274,35.2,15.974,35.33Zm-.066-5.493h0c-.077.347-.161.7-.248,1.06h0l0,.016-.005.019h0l-.06.251h0l0,.013c-.081.327-.171.663-.261,1l-.045.171a8.151,8.151,0,0,1-2.338.144h0a6.019,6.019,0,0,1-1.226-.144L11.67,32.2c-.091-.337-.18-.672-.262-1l0-.014h0l-.063-.266q-.132-.538-.253-1.079h0l-.037-.171,0-.013h0c-.164-.757-.308-1.5-.428-2.206a6.073,6.073,0,0,1,5.756,0c-.1.574-.214,1.169-.339,1.771l0,0-.093.469h0v.005h0l0,.011,0,.008.036.008h-.008l-.029,0,.021.006h-.022v0h0l-.025.116Zm.566-2.978-.009.055a6.61,6.61,0,0,0-5.935,0c-.029-.2-.06-.4-.089-.6l-.1-.766q-.054-.419-.094-.838l-.028-.291h0l-.009-.1a4.388,4.388,0,0,1,6.58,0l-.01.1h0l-.024.245,0,.022c-.03.3-.063.607-.1.909l0,.018-.093.7c-.025.18-.052.36-.08.542Zm4.093-2.674c.448.2.7.915.841,1.34a4.342,4.342,0,0,1,.231,2.358,16.919,16.919,0,0,0-.6-2.063c-.138-.364-.328-.989-.8-.989a11.528,11.528,0,0,0-3.075.736c.031-.243.058-.486.082-.731l.006.007,0-.038a18.744,18.744,0,0,1,2.04-.555,2.379,2.379,0,0,1,1.272-.065C20.913,24.341,20.526,24.166,20.567,24.185Zm2.049-2.357a3.323,3.323,0,0,1,1.952,2.559c-.64-1.029-1.46-2.2-2.788-1.953a26.516,26.516,0,0,0-4.444,1.415c.016-.212.029-.421.041-.627,1.095-.384,2.2-.755,3.315-1.062a4.391,4.391,0,0,1,1.924-.332C23.211,21.982,22.59,21.822,22.616,21.828Zm.074-3.165h0A6.315,6.315,0,0,1,25.711,20.6a7.848,7.848,0,0,0-2.128-1.1,2.534,2.534,0,0,0-1.728.2,22.847,22.847,0,0,0-4.434,2.33c0-.2.006-.386.006-.576C20.146,19.707,22.1,18.663,22.69,18.663Zm-2.526-.209a6.966,6.966,0,0,1-2.783,1.328c-.006-.119-.014-.236-.022-.352A3.816,3.816,0,0,0,18.695,18.2c.4-.6.49-1.475,1.061-1.949.539-.448,1.174-.027,1.262.612a1.942,1.942,0,0,1-.854,1.6C19.468,19.04,20.532,18.145,20.164,18.454Zm3.528-4.232a4.1,4.1,0,0,1-2.247,2.262,1.614,1.614,0,0,0-.414-.638c.192-.429.368-.876.526-1.33l.032-.092c.238-.685.515-1.57,1.306-1.754.974-.227,1.059.878.8,1.552C23.3,15.229,23.867,13.773,23.692,14.222Zm.384-1.644c-.684-.909-1.976-.3-2.457.488a11.659,11.659,0,0,1-.425-8.542,6.2,6.2,0,0,1,1.291,2.483l.172.685.3-.636a5.355,5.355,0,0,0-.7-5.089,6.56,6.56,0,0,1,3.618,3.592,8.015,8.015,0,0,1,.57,4.121,3.99,3.99,0,0,1-2.366,2.9S25.682,11.8,24.076,12.578Z" transform="translate(-0.003)" fill="#8cbc50" fill-rule="evenodd"/>
</svg>
