<svg xmlns="http://www.w3.org/2000/svg" width="40.002" height="35" viewBox="0 0 40.002 35">
  <path id="h5" d="M39.843,8.7a1.571,1.571,0,0,0-1.688-.784c-.161-.147-.327-.289-.493-.423l-4.629-3.7a5.816,5.816,0,0,0-.988-.667C30-.67,24.35-.857,21.277,1.582a8.179,8.179,0,0,0-2.86,4.844,8.472,8.472,0,0,0,1.175,6l-5.287.553c-1.893.2-3.8.547-4.947,2.269A3.782,3.782,0,0,0,6.652,17.4,18.9,18.9,0,0,0,5.79,21.37a3.341,3.341,0,0,1-1.865,2.649c-.99.323-2.5-.429-1.881-1.682,2.308-.863,2.106-4.048,1.865-6.022l-.1-.791-.386.315A12.7,12.7,0,0,0,.782,18.488c-.706,1.053-1.309,2.77-.068,3.689a3.718,3.718,0,0,0,1.009,3.28,2.99,2.99,0,0,0,3.634-.07,5.4,5.4,0,0,0,1.868-3.318c.293-1.415.3-2.977,1.156-4.193-.342,2.226.332,4.386.408,6.6A2.45,2.45,0,0,1,7.8,26.722a3.207,3.207,0,0,0-.929,2.726c-.013,1.815.164,3.92,1.889,4.908a5.306,5.306,0,0,0,2.471.6A4.457,4.457,0,0,0,14,34.487c1.009.041,3.422-.346,2.682-1.98-.361-.8-1.263-.967-2.019-1.125a2.939,2.939,0,0,1-1.946-1.208,2.067,2.067,0,0,1-.322-1.192c.025-.5.331-.584.74-.71a8.439,8.439,0,0,0,2.185-1.042,9.189,9.189,0,0,0,3.326-4.063,8.51,8.51,0,0,0,1.6.16,8.069,8.069,0,0,0,.906-.055,4.617,4.617,0,0,0,1.722,3.483,5.113,5.113,0,0,1,1.236,1.53,3.868,3.868,0,0,1-.008,2.356l-.077.376a3.086,3.086,0,0,0,.586,2.932,4.5,4.5,0,0,0,3.171.822c1.05.184,2.8.272,3.584-.612a1.331,1.331,0,0,0,.191-1.627,1.954,1.954,0,0,0-1.446-.64c-.583-.084-1.208-.189-1.379-.859a5.666,5.666,0,0,1,.042-1.877,41.439,41.439,0,0,0,.19-4.594c2.414-3.324,4.945-6.952,4.983-11.273a3.7,3.7,0,0,1,1.043-.135h0c.844,0,1.768.446,2.56-.05a4.223,4.223,0,0,0,1.424-2.349c.377-.281,1.322-1.108.873-2.053C39.608,8.206,40.292,9.647,39.843,8.7Zm-2.519-.764c.073.059.146.118.219.179a1.352,1.352,0,0,0,.252,2.456c-1.265,2.114-3.711-.544-5.4.519-.771.485-.962,1.5-1.215,2.324q-.416,1.348-.838,2.695C29.2,13.7,26.6,11.9,27.011,8.932A9.02,9.02,0,0,1,28.787,4.94c.673-.909,1.759-1.909,2.944-1.354l0,0a5.039,5.039,0,0,1,.961.646ZM26.4,8.392a1.7,1.7,0,0,1-.962-2.369c.513-.858,1.43-.721,2.107-.164a8.966,8.966,0,0,0-1,2.559A.615.615,0,0,1,26.4,8.392ZM.569,20.982c-.345-1.764,1.66-3.428,2.82-4.389a8.123,8.123,0,0,1-.094,3.44c-.247.773-1.172,2.312-2.164,1.762h0a1.22,1.22,0,0,1-.56-.812C.486,20.556.636,21.324.569,20.982Zm6.744-2.206c-.684,2.087-.354,4.79-2.343,6.2a2.446,2.446,0,0,1-2.879.057A3.029,3.029,0,0,1,1.24,22.43a1.2,1.2,0,0,0,.18.025,1.856,1.856,0,0,0,1.735,2.219,2.9,2.9,0,0,0,2.7-1.8c1.115-2.249.247-5.884,3.1-6.943a6.26,6.26,0,0,0-.334.849,4.415,4.415,0,0,0-1.314,1.992C7.093,19.448,7.574,17.982,7.313,18.776Zm9.65,6.183A8.289,8.289,0,0,1,13.8,27.424c-.538.237-1.332.291-1.714.782a2.019,2.019,0,0,0-.011,1.95c.61,1.349,1.89,1.58,3.147,1.925.464.127,1.254.551.978,1.179-.235.535-1.229.629-1.709.661a1.237,1.237,0,0,0-.185-1.368,2.287,2.287,0,0,0-1.915-.406c-1.668.09-1.643-1.483-1.743-2.763-.068-.889.62-1.19,1.249-1.574a10.051,10.051,0,0,0,1.863-1.467,10.268,10.268,0,0,0,2.494-4.014,8.014,8.014,0,0,0,1.84.724,8.9,8.9,0,0,1-1.135,1.906Zm3.278-2.194a7.7,7.7,0,0,1-4-1.093l-.3-.186-.1.347a9.565,9.565,0,0,1-1.908,3.517,9.708,9.708,0,0,1-1.454,1.391c-.525.406-1.144.662-1.665,1.061-.95.727-.775,2.2-.545,3.256a2.285,2.285,0,0,0,.719,1.3,2.7,2.7,0,0,0,1.954.312l.115,0c.423,0,1.021.14,1.026.683.005.691-.821.947-1.355,1a6.507,6.507,0,0,1-3.607-.445,3.663,3.663,0,0,1-1.657-3.192,14.047,14.047,0,0,1-.011-2.01,2.219,2.219,0,0,1,.974-1.766c1.094-.9.968-2.357.817-3.639a23.632,23.632,0,0,1-.373-4.87,5.426,5.426,0,0,1,1.764-3.786,6.986,6.986,0,0,1,3.733-1.112l5.558-.581c1.782,2.67,4.417,4.561,6.373,7.079A8.724,8.724,0,0,1,22.3,22.479l-.231.064v0A7.749,7.749,0,0,1,20.241,22.765Zm4.573,10.593a2.722,2.722,0,0,1-.255-2.231l.075-.369a5.016,5.016,0,0,0,.115-2.293,4.012,4.012,0,0,0-1.128-1.751C22.585,25.666,21.66,24.8,21.688,23.2c.161-.027.315-.059.467-.1.341,1.612,1.85,2.122,2.636,3.408a8.184,8.184,0,0,1,.711,4.364v.09a4.3,4.3,0,0,0,.873,3.133,2.433,2.433,0,0,1-1.56-.742Zm5.215-.909c.61.088,1.569.356,1.026,1.2-.46.712-1.561.637-2.289.637a2.626,2.626,0,0,1-2.132-.723,4.021,4.021,0,0,1-.584-2.59v-.089a9.642,9.642,0,0,0-.6-4.309c-.685-1.419-2.437-2-2.76-3.622a9.311,9.311,0,0,0,3.944-2.462A9.3,9.3,0,0,1,28.4,24.526l.01.061a43.87,43.87,0,0,1-.255,5.214,3.258,3.258,0,0,0,.152,1.691,1.982,1.982,0,0,0,1.721.957Zm2.226-14.236a30.369,30.369,0,0,1-3.329,5.449V23.63l-.106.153a10.347,10.347,0,0,0-1.8-3.712l0,0-.138-.181,0-.006-.2-.265-.007.008c-3.152-4.02-9.207-7.6-7.591-13.646A7.251,7.251,0,0,1,23.837.858c2.5-.783,5.718-.211,7.387,2-1.524-.15-2.671,1.34-3.39,2.511a1.839,1.839,0,0,0-2.995.611,2.279,2.279,0,0,0,1.612,3c-.4,3.374,2.723,5.143,3.659,8.041l.264.821.246-.786a15.9,15.9,0,0,1,2.77-3.475,12.857,12.857,0,0,1-1.135,4.632C31.392,20.173,32.944,16.653,32.255,18.213Zm5.171-5.666a1.707,1.707,0,0,1-1.485.2,4.873,4.873,0,0,0-2,.014A5.568,5.568,0,0,0,31.2,15.2c.267-.856.51-1.723.8-2.572a1.535,1.535,0,0,1,1.7-1.248c.926.087,1.766.67,2.712.615A2.35,2.35,0,0,0,38.3,10.8c.04.019.077.037.11.056a4.583,4.583,0,0,1-.98,1.694C37.238,12.731,37.807,12.172,37.426,12.547Zm1.184-2.22c-.031-.016-.067-.033-.1-.049v0l-.254-.111c-.381-.165-.744-.314-.861-.764-.127-.489.329-.816.74-.913h.006c.507-.119,1.367.135,1.259.821a1.77,1.77,0,0,1-.789,1.02C38.579,10.311,38.8,10.19,38.61,10.327Z" transform="translate(0.003 0.03)" fill="#5e3d9f" fill-rule="evenodd"/>
</svg>
