<svg xmlns="http://www.w3.org/2000/svg" width="26.999" height="34.997" viewBox="0 0 26.999 34.997">
  <path id="h6" d="M26.693,33.317c-.836-.5-1.817-.665-2.68-1.108a1.342,1.342,0,0,0-.653-.452c-.21-.223-.386-.472-.6-.689a1.53,1.53,0,0,0,1.648-1.186,3.546,3.546,0,0,0-.684-2.576l-.22-.379c1.873-.667,3.712-2.526,2.974-4.626l-.156-.444-.3.365c-.825,1-2.154-.1-2.56-.892a10.581,10.581,0,0,1-.923-3.6,65.548,65.548,0,0,1,.043-8.112c.029-2.4-.067-5.078-1.394-7.184C19.956.481,17.469-.7,15.259.464a4.66,4.66,0,0,0-4.9,2.6l-.108.25.26.094a5.49,5.49,0,0,0,.933.234c-.5,1.589-.91,3.946.185,5.4a12.627,12.627,0,0,1-.346,1.532,2.693,2.693,0,0,0-1.878.3,3.427,3.427,0,0,0-1.126,1.68L6,18.211a9.141,9.141,0,0,1-1.462-4.576,8.839,8.839,0,0,1,.225-2.409,6.545,6.545,0,0,0,.393-2.558A5.269,5.269,0,0,0,7.808,4.557c.165-1.4-.23-3.205-1.685-3.845-1.53-.674-3.108.413-3.935,1.62a5.233,5.233,0,0,0-.518,5.3,2.3,2.3,0,0,0-.14,2.85c-.133.375-1.224,2.8-.01,2.8.44-.011.7-.442.874-.783a21,21,0,0,1,.62,4.547,8.576,8.576,0,0,0,.717,3.914,2.006,2.006,0,0,0,2.587.792,4.137,4.137,0,0,0,1.545-1.26c.27-.326.66-1,1.1-1.129A13.974,13.974,0,0,1,10,21.938c.282.932.838,2.061-.043,2.833l0,0a13.854,13.854,0,0,1-3.03,1.557,40.279,40.279,0,0,0-3.587,2.018h0C2.18,29.08.343,29.994.041,31.443c-.344,1.651,1.528,2.33,2.876,2.237C3.954,34.89,6.11,34.9,7.6,34.973a40.793,40.793,0,0,0,5.857-.257c1.942-.188,3.886-.408,5.84-.436a22.593,22.593,0,0,1,2.873.128,25.675,25.675,0,0,0,2.915.386h.069a3.351,3.351,0,0,0,1.506-.357.647.647,0,0,0,.037-1.12ZM18.269,31.46a30.384,30.384,0,0,1-2.979-.748l.03-.033a3.31,3.31,0,0,0,2.763-.754c.74-.771,1.586.878,2.163,1.231a2.728,2.728,0,0,1-1.427.352c-.176-.008-.357-.022-.55-.048Zm2.678-.632a.633.633,0,0,1-.059.057l-.021.019-.029-.014c-.832-.422-1.193-1.419-2.123-1.671a3.3,3.3,0,0,0,1.011-1.7,9.449,9.449,0,0,0,1.09-.042q.327.806.648,1.613a7.486,7.486,0,0,0,.619,1.514.965.965,0,0,0-1.136.225Zm-1.476-5.366c-.513-.867-1.506-1.135-2.312-1.658a2.343,2.343,0,0,1-.877-2.368A14.977,14.977,0,0,1,17.474,16.7c.487,1.734.74,3.525,1.259,5.251.513,1.707,1.212,3.369,1.881,5.022-.283.022-.544.033-.8.028A2.675,2.675,0,0,0,19.471,25.462ZM16.779.517C18.937.29,20.62,2.064,21.312,3.875c.9,2.365.786,5.038.685,7.517A33.153,33.153,0,0,0,22.191,19a7.686,7.686,0,0,0,1.1,3.063,2.185,2.185,0,0,0,2.782.8c.265,1.754-1.286,3.089-2.828,3.614a20.613,20.613,0,0,1-2.023-4.308,8.215,8.215,0,0,1-.358-2.655c.043-1,.3-1.972.419-2.961a4.4,4.4,0,0,0-1.148-3.978c-.63-.531-1.49-.6-2.155-1.06a2.991,2.991,0,0,1-1.189-1.69,13.451,13.451,0,0,1,.157-1.537,9.469,9.469,0,0,0,1.058-1,4.148,4.148,0,0,0,.384.2l.183.087.133-.15c1.676-1.893,1.143-5.772-1.7-6.338l.033-.049L16.75.918c-.219-.089-.44-.174-.665-.249a3.212,3.212,0,0,1,.694-.152C18.1.377,16.548.541,16.779.517Zm-.742,2a2.012,2.012,0,0,1,.064-.333h0a.817.817,0,0,1,.452-.591l.032-.007c.529-.119,1.188.357,1.538.689a3.289,3.289,0,0,1,.888,1.474,3.616,3.616,0,0,1-.578,3.18,4.62,4.62,0,0,1-2.4-4.411C16.048,2.408,15.871,4.117,16.037,2.516ZM14.573.923a4.5,4.5,0,0,1,1.542.308,1.426,1.426,0,0,0-.5.738,4.923,4.923,0,0,1-4.641,1.046A4.162,4.162,0,0,1,14.573.923ZM11.967,3.715c.136.01.271,0,.407.015a5.4,5.4,0,0,0,3.115-.991,5.176,5.176,0,0,0,2.066,4.242,8.852,8.852,0,0,1-2.382,1.851,3.025,3.025,0,0,1-2.56.384,2.5,2.5,0,0,1-1.088-2.268,9.169,9.169,0,0,1,.442-3.233C12.049,3.721,11.624,4.775,11.967,3.715ZM14.1,10c-.306.8-1.344.79-2.068.68l-.211-.033c.1-.35.191-.727.269-1.139a2.546,2.546,0,0,0,2.072.279A1.234,1.234,0,0,1,14.1,10ZM1.974,3.952A4.342,4.342,0,0,1,4.409,1.16,2.072,2.072,0,0,1,7.067,2.487a4.791,4.791,0,0,1-.345,3.831c-.566,1.1-1.745,2.351-3.143,2.139h0a1.855,1.855,0,0,1-.792-.322h0a2.207,2.207,0,0,1-.563-.6l0,0a4.28,4.28,0,0,1-.245-3.583C2.538,2.257,1.538,5.26,1.974,3.952Zm-.006,4.13a2.8,2.8,0,0,0,.342.346q-.273.681-.53,1.367a1.617,1.617,0,0,1,.188-1.713C1.989,8.108,1.7,8.411,1.968,8.082Zm-.191,4.437c-.146.214-.239.24-.254.243-.241-.17.208-1.222.262-1.387.288-.893.626-1.773.974-2.645a2.412,2.412,0,0,0,.435.175c-.211.624-.429,1.248-.659,1.867a7.883,7.883,0,0,1-.758,1.747C1.631,12.733,1.842,12.426,1.777,12.519Zm5.79,7.505c-.588.711-1.508,1.7-2.574,1.348-.81-.268-1.1-1.193-1.233-1.931-.45-2.558-.147-5.179-1.045-7.67.372-.914.693-1.847,1.008-2.779a.58.58,0,0,1,.138,0,4.632,4.632,0,0,0,.787-.12,10.139,10.139,0,0,1-.5,2.713,9.474,9.474,0,0,0-.109,2.505,9.621,9.621,0,0,0,1.81,4.82l.284.387L8.773,12.74a3.034,3.034,0,0,1,.908-1.426,2.354,2.354,0,0,1,1.715-.206l.549.084a5.009,5.009,0,0,0,.743.061,1.846,1.846,0,0,0,2.036-1.644,7.935,7.935,0,0,0,1.621-.878c-.045.368-.072.739-.089,1.109v.034l.008.035a3.339,3.339,0,0,0,.555,1.183h0a3.463,3.463,0,0,0,1.413,1.157,4.133,4.133,0,0,1,1.9,1.072,4.959,4.959,0,0,1,.509,3.936,10.805,10.805,0,0,0,.015,4.863,21.06,21.06,0,0,0,2.232,4.793l.374.646a4.019,4.019,0,0,1,.673,1.75,1.2,1.2,0,0,1-.831,1.262c-.627.1-.773-.725-.932-1.133-.263-.678-.536-1.353-.809-2.027h0l-.127-.315a47.81,47.81,0,0,1-2.561-7.586c-.14-.632-.276-1.267-.423-1.9a4.731,4.731,0,0,0-.469-1.638c-.482-.628-1.147,1.467-1.24,1.765.038-.32.09-1.5-.293-1.606-.493-.133-.142,1.248-.163,1.488A2.215,2.215,0,0,1,13.212,19.5a2.138,2.138,0,0,1-1.206-3.15c.108-.178.393-.433.13-.623s-.53.39-.614.556a2.691,2.691,0,0,0-.118,2.144c-.981.592-2.934.856-3.207-.666-.246-1.37,1.188-2.4,1.567-3.609.022-.175-.2-.224-.328-.167-.176.078-.226.343-.307.5-.308.588-.746,1.1-1.055,1.685a2.077,2.077,0,0,0,.47,2.843,5.524,5.524,0,0,0-.977,1.017ZM26.4,33.983a2.794,2.794,0,0,1-1.259.293h-.061a14.047,14.047,0,0,1-2.129-.284,19.835,19.835,0,0,0-2.243-.213,37.506,37.506,0,0,0-4.891.188c-3.225.291-6.484.765-9.722.361-1.112-.14-2.64-.281-3.1-1.477-.409-1.074.6-2.044,1.377-2.654a42.994,42.994,0,0,1,8.088-4.915h0c.032-.015.062-.032.093-.047l.01-.007H11.384a46.586,46.586,0,0,0-6.09,3.649c-1.287.911-3.623,2.428-2.728,4.3C1.654,33.215.373,32.689.555,31.6c.177-1.05,1.423-1.735,2.236-2.279A39.467,39.467,0,0,1,6.184,27.3C7.3,26.7,8.5,26.248,9.6,25.637h0a3,3,0,0,0,.965-.755l0,0h0c.045-.06.092-.122.154-.2.536-.842.087-1.856-.169-2.718a15.133,15.133,0,0,0-1-2.6,3.357,3.357,0,0,0,2.059-.533,2.717,2.717,0,0,0,4.717-.353,18.77,18.77,0,0,0-.567,2.908h0A2.809,2.809,0,0,0,16.819,24.2c.857.574,2.039.839,2.373,1.922.708,2.3-1.869,3.731-3.818,3.98l-.124.016c-.04.006-.082.009-.123.015l-.044,0-.009.011c-.542.074-1.1.123-1.636.166l-.412.034c-1.744.141-3.671.453-4.9,1.794l.358.379A8.106,8.106,0,0,1,12.776,31h0a8.551,8.551,0,0,1,1.313.026l-.019.014.56.121a19.629,19.629,0,0,0,4.128.871.772.772,0,0,0,.118-.009,3.077,3.077,0,0,0,2.331-.723l.04-.036c.306-.279.457-.318.825-.088l.925.96a2.732,2.732,0,0,0,.707.5l.6.323-.021-.059c.444.175.9.307,1.349.479.109.043,1.124.411.769.6S26.466,33.948,26.4,33.983Z" transform="translate(0 -0.003)" fill="#5e3d9f" fill-rule="evenodd"/>
</svg>
