<svg xmlns="http://www.w3.org/2000/svg" width="36" height="23" viewBox="0 0 36 23">
  <path id="h7" d="M33.952,16.282,30.788,6.1a3.5,3.5,0,0,0,1.9-3.234l-.01-.445-.362.252c-2.129,1.479-4.453.6-6.514-.53a11.434,11.434,0,0,0-3.138-1.5,4.637,4.637,0,0,0-3.255.79A1.444,1.444,0,0,0,18.034,0L18,0l-.035,0A1.444,1.444,0,0,0,16.59,1.426,5.167,5.167,0,0,0,14.141.58a4.924,4.924,0,0,0-2.578.8c-1.669.9-3.409,2.109-5.375,2.109a4.279,4.279,0,0,1-2.506-.82l-.361-.252-.011.445A3.5,3.5,0,0,0,5.211,6.1L2.047,16.282H0l0,.242c.026,3.1,3.268,4.9,6,4.9s5.977-1.8,6-4.9v-.242h-1.9l-2.19-9.9A12.542,12.542,0,0,0,10.9,5.5c1.448-.977,3.522-.564,4.918.263a36.557,36.557,0,0,1,.59,13.019,1.447,1.447,0,0,0-.839,1.282,5.532,5.532,0,0,0-3.77,2.593L11.64,23H24.359l-.161-.344a5.534,5.534,0,0,0-3.77-2.593,1.447,1.447,0,0,0-.839-1.282,36.554,36.554,0,0,1,.59-13.019,4.937,4.937,0,0,1,4.957-.241,12.632,12.632,0,0,0,2.945.856l-2.19,9.9h-1.9l0,.242c.026,3.1,3.268,4.9,6,4.9s5.977-1.8,6-4.9l0-.242Zm-3.8,0-.563-9.866a4.006,4.006,0,0,0,.831-.176l3.12,10.042ZM17.208.9A1.144,1.144,0,0,1,18,.486a1.007,1.007,0,0,1,.917,1.271,8.436,8.436,0,0,0-.856.712.722.722,0,0,0-.123,0,8.558,8.558,0,0,0-.855-.712A1.163,1.163,0,0,1,17.208.9C17.355.686,17.066,1.1,17.208.9ZM18.949,4.24a1,1,0,0,1-.553.63h0c-1.358.6-1.968-1.727-.477-1.914h.009a.5.5,0,0,1,.145,0l.043.005h0A1.01,1.01,0,0,1,18.949,4.24Zm-13.374,2a4,4,0,0,0,.83.176l-.562,9.866H2.455Zm.43,14.7c-2.926,0-5.341-1.854-5.517-4.18H11.523C11.346,19.089,8.931,20.943,6.005,20.943Zm.227-4.661.561-9.838a6.043,6.043,0,0,0,.737-.023l2.18,9.861ZM10.684,5.074a9.952,9.952,0,0,1-3.715.891l-.155,0a2.959,2.959,0,0,1-3-2.638,4.62,4.62,0,0,0,2.369.647c2.2,0,4.088-1.391,5.969-2.362a3.624,3.624,0,0,1,2.914-.374A6.606,6.606,0,0,1,17.382,2.61a1.505,1.505,0,0,0-.215,2.561.9.9,0,0,1-.368.3,1.573,1.573,0,0,1-.493.019c-.032-.021-.065-.039-.1-.058l-.565-.343.01.035A5.617,5.617,0,0,0,12.4,4.507c-.1.012-1.789.43-1.721.567C9.629,5.507,10.682,5.07,10.684,5.074Zm12.89,17.444H12.425a5.472,5.472,0,0,1,3.272-2c.755,1.508,3.849,1.5,4.606,0A5.472,5.472,0,0,1,23.574,22.518ZM19.958,20c0,.759-1.073,1.067-1.648,1.123-.709.069-2-.1-2.239-.951v0c-.254-.916,1.192-1.278,1.815-1.3C18.537,18.851,19.958,19.1,19.958,20Zm-.875-1.448a3.522,3.522,0,0,0-2.166,0A37.562,37.562,0,0,0,16.368,5.99a1.291,1.291,0,0,0,1.24-.608,1.446,1.446,0,0,0,.783,0,1.3,1.3,0,0,0,1.241.608,37.511,37.511,0,0,0-.549,12.564C19.044,18.541,18.4,12.424,19.083,18.554ZM22.941,4.466a5.694,5.694,0,0,0-2.595.654l.009-.035-.565.343a.628.628,0,0,0-.073.045.763.763,0,0,1-.884-.3,1.5,1.5,0,0,0-.215-2.561,6.058,6.058,0,0,1,2.769-1.49c1.335-.256,2.447.469,3.568,1.1,2.216,1.242,4.771,2.526,7.222,1.109a2.96,2.96,0,0,1-2.991,2.636l-.156,0A9.956,9.956,0,0,1,25.356,5.1,4.645,4.645,0,0,0,22.941,4.466Zm5.528,1.955a5.855,5.855,0,0,0,.737.023l.561,9.838H26.289Zm1.525,14.522c-2.926,0-5.341-1.854-5.518-4.18H35.512C35.335,19.089,32.921,20.943,29.994,20.943Z" fill="#8cbc50" fill-rule="evenodd"/>
</svg>
