<svg xmlns="http://www.w3.org/2000/svg" width="30.997" height="34.998" viewBox="0 0 30.997 34.998">
  <path id="h8" d="M30.457,13.48c.112.19.234.394,0,0-.2-.331-.106-.177,0,0-.537-.9-1.667-1.728-2.735-1.275l-.437.185.4.263c.695.461.18,1.563-.063,2.126-.429.991-.553,2.166.573,2.715a11.6,11.6,0,0,0-.707,3.4,1.8,1.8,0,0,0-.931,2.631,1.841,1.841,0,0,0-.672,2.155A1.864,1.864,0,0,0,24.842,27.6a1.84,1.84,0,0,0-1.59,1.66,1.891,1.891,0,0,0-1.941,1.483,1.834,1.834,0,0,0-2.4.9,1.875,1.875,0,0,0-2.451.019A1.894,1.894,0,0,0,15,30.8a1.943,1.943,0,0,0-.882-1.766,10.611,10.611,0,0,0,.691-1.843l.008,0,.028-.118,0,0,.145-.527-.011,0c.128-.53.242-1.1.341-1.708a4.035,4.035,0,0,1,2.551-.714c.89.056,1.71.669,2.609.414.939-.266,4.839-2.2,3.361-3.6l-.127-.121-.158.078a8.2,8.2,0,0,1-4.251,1.087c-1.228-.06-2.608-.224-3.695.5.027-.321.051-.643.069-.964h0V21.5h0v0h0l0-.03,0-.053a3,3,0,0,1,2.23-.827c.932.047,1.678.826,2.614.762a5.785,5.785,0,0,0,2.522-1.23,3.657,3.657,0,0,0,1.606-2.328l.034-.225-.217-.06a2.651,2.651,0,0,0-1.982.514,2.894,2.894,0,0,1-2.37.407,6.033,6.033,0,0,0-2.376-.314,4.159,4.159,0,0,0-2.009.885c0-.475-.015-.954-.036-1.434a11.413,11.413,0,0,1,1.912-.054l.377.015a8.916,8.916,0,0,0,3.756-.381,3.331,3.331,0,0,0,2.119-2.179.938.938,0,0,0-.587-1.164c-.614-.152-1.252.341-1.729.662a5.408,5.408,0,0,1-1.694.906,4.945,4.945,0,0,1-2.1-.134l-.245-.049a4.75,4.75,0,0,0-2-.063c-.02-.178-.04-.355-.064-.529l0,0-.013-.1c0-.015-.005-.032-.007-.048l-.008-.057c0-.014-.005-.028-.007-.042l-.038-.273h0c-.017-.114-.033-.228-.052-.342a3.113,3.113,0,0,1,2.9-.222l.135.04c1.35.4,3.62.748,4-1.188a3.066,3.066,0,0,0,.88-4.926c2.036-1.472.866-3.719-.62-5.067a10.148,10.148,0,0,0-2.8-1.8A4.1,4.1,0,0,0,16.792.2l-.4.167.339.269a4.725,4.725,0,0,1,1.549,1.808c.317.847-.847.956-1.407.987l-.286.015.051.285c.035.192.882,4.71,3.931,4.71h0a3.591,3.591,0,0,0,1.148-.211,5.314,5.314,0,0,0-.57,3.552c-1.2.072-2.175-.764-3.247-1.17a3.7,3.7,0,0,0-3.228.293c-.019-.059-.037-.118-.056-.178V10.72c0-.008,0-.017-.007-.024h0l0-.011h0l-.057-.152h0c-.041-.117-.083-.234-.128-.349l0-.007c-.005-.011-.009-.024-.014-.036h0l0-.007h0l0,0h0l-.021-.053h0c-.033-.082-.067-.161-.1-.239l-.006,0-.022-.051,0,0-.008-.017a2.642,2.642,0,0,0,.912-3.51L15.009,5.9l-.264.282a4.88,4.88,0,0,1-2.381,1.454A4.875,4.875,0,0,1,9.951,6.185L9.688,5.9l-.152.356a2.642,2.642,0,0,0,.913,3.51c0,.008-.007.016-.011.025l.006,0-.02.044-.006,0,0,.01c-.032.072-.064.146-.094.223l0,.007h0l-.021.052h0l0,.011c-.005.014-.01.03-.016.044-.063.159-.124.321-.183.495l0,.006h0l0,.011h0l-.009.027v0c-.018.059-.037.119-.056.177a3.7,3.7,0,0,0-3.228-.293c-1.07.4-2.045,1.243-3.246,1.171a5.316,5.316,0,0,0-.57-3.553c2.907.988,4.635-2.029,5.078-4.5l.052-.285L7.821,3.43c-.5-.027-1.656-.111-1.439-.89A4.362,4.362,0,0,1,7.963.635L8.3.366,7.9.2A3.982,3.982,0,0,0,5,.517,10.123,10.123,0,0,0,2.178,2.275C.653,3.616-.637,5.923,1.454,7.434a3.067,3.067,0,0,0,.88,4.926c.378,1.936,2.648,1.59,4,1.188l.136-.04a3.11,3.11,0,0,1,2.9.222c-.019.113-.035.228-.052.342h0l-.044.315v0c-.007.048-.014.095-.02.143l-.008.055h0c-.023.175-.043.352-.063.53a4.756,4.756,0,0,0-2,.063l-.245.05a5.552,5.552,0,0,1-1.944.163A4.344,4.344,0,0,1,3.3,14.564a3.036,3.036,0,0,0-1.751-.788.914.914,0,0,0-.72,1.185,3.283,3.283,0,0,0,2.009,2.132,8.666,8.666,0,0,0,3.865.428l.377-.015a11.422,11.422,0,0,1,1.913.054c-.021.48-.033.959-.036,1.434a4.395,4.395,0,0,0-4.2-.619,2.868,2.868,0,0,1-2.395-.267A2.905,2.905,0,0,0,.218,17.5L0,17.562l.034.225A3.584,3.584,0,0,0,1.5,20.012,6.608,6.608,0,0,0,4,21.325c.953.169,1.715-.638,2.636-.731a3,3,0,0,1,2.371.816l0,.053c0,.01,0,.02,0,.03v.021c.018.3.039.6.065.907l0,.056a6.129,6.129,0,0,0-3.7-.5,8.206,8.206,0,0,1-4.251-1.086l-.157-.078-.128.121c-1.522,1.447,2.8,3.675,3.88,3.675h0c.771-.009,1.459-.477,2.247-.494a4.04,4.04,0,0,1,2.394.719c.032.2.065.394.1.59h0v.006q.08.426.17.825v.078l.023.023c.015.065.032.125.047.188L9.7,26.538l.138.5a.029.029,0,0,0,0,.009v0l0,0a.116.116,0,0,0,0,.018l0,.008a7.32,7.32,0,0,0,1.426,3.008,1.935,1.935,0,0,0,1.675,2.5,1.917,1.917,0,0,0,3.152,1.6,1.9,1.9,0,0,0,3.319-.286,1.845,1.845,0,0,0,2.936-1.018,1.887,1.887,0,0,0,2.667-1.586,1.856,1.856,0,0,0,1.87-2.078,1.88,1.88,0,0,0,1.5-2.553,1.844,1.844,0,0,0,.7-2.625,1.814,1.814,0,0,0,.428-2.477,3.248,3.248,0,0,0,1.294-2.066,4.364,4.364,0,0,0-.183-2.824A3.1,3.1,0,0,0,30.457,13.48ZM15.745,19.674a3.543,3.543,0,0,1,3.016-1.061c-.175-.027-.847-.13,0,0,.057.009.046.007,0,0a7.812,7.812,0,0,0,2.674.413c.922-.179,1.713-1.121,2.671-1.069a3.365,3.365,0,0,1-1.388,1.772A5.335,5.335,0,0,1,20.5,20.836l-.07,0c-.81,0-1.512-.674-2.334-.76a3.48,3.48,0,0,0-2.373.633C15.736,20.366,15.742,20.02,15.745,19.674Zm1.672-3.992.242.05a4.427,4.427,0,0,0,3.439-.364c.354-.215,2.554-1.888,2.275-.495a2.956,2.956,0,0,1-2.03,1.876,9.078,9.078,0,0,1-3.329.262L17.635,17a12.329,12.329,0,0,0-1.95.052v-.024c0-.039-.006-.076-.008-.115l0-.041h0c-.013-.208-.027-.415-.044-.619h0a.109.109,0,0,0,0-.018l-.012-.141h0q-.02-.236-.042-.471A4.733,4.733,0,0,1,17.417,15.682Zm-1.911,7.875h0c.014-.123.029-.245.041-.368a1.945,1.945,0,0,1,.342-.284h0c1.063-.683,2.416-.453,3.6-.409a8.235,8.235,0,0,0,4.1-1.051c.263.719-.9,1.331-1.356,1.628A4.907,4.907,0,0,1,19.972,24.1a3.435,3.435,0,0,1-1.02-.285,4.113,4.113,0,0,0-1.126-.206,4.52,4.52,0,0,0-2.4.557Q15.47,23.862,15.506,23.557ZM5.769,20.283c.119-.047.88-.35,0,0-.021.008-.019.007,0,0a4.3,4.3,0,0,1-1.5.554l-.07,0a5.337,5.337,0,0,1-2.223-1.107A3.365,3.365,0,0,1,.587,17.957c.719-.041,1.378.551,2,.84a3.247,3.247,0,0,0,2.331.063,3.811,3.811,0,0,1,4.036.814c0,.179.005.36.009.541l0,.164h0c0,.111.007.222.011.333A3.481,3.481,0,0,0,5.769,20.283Zm3.3-4.048h0c0,.006,0,.01,0,.016v0s0,0,0,.006c-.016.2-.029.4-.042.608h0l0,.035c0,.041-.006.08-.008.121l0,.024A12.446,12.446,0,0,0,7.061,17l-.379.015a9.073,9.073,0,0,1-3.328-.262,2.957,2.957,0,0,1-2.03-1.877c-.279-1.392,1.921.281,2.275.5a4.429,4.429,0,0,0,3.438.364l.243-.05a4.728,4.728,0,0,1,1.842-.064c-.014.149-.027.3-.04.448ZM7.084,23.6a5.146,5.146,0,0,0-1.756.366,2.107,2.107,0,0,1-1.8-.278,11.932,11.932,0,0,1-1.642-1.012c-.358-.263-.974-.692-.777-1.229A8.334,8.334,0,0,0,5.4,22.487c1.222-.057,2.8-.286,3.751.7.034.326.075.651.119.976A4.5,4.5,0,0,0,7.084,23.6ZM20.572,7.93h0c-2.231,0-3.144-3.064-3.373-4.014.689-.07,1.694-.326,1.647-1.218A3.618,3.618,0,0,0,17.431.564c2.454-.247,8.978,4.129,5.422,6.526h0l-.151.1A4.028,4.028,0,0,1,20.572,7.93Zm1.825.162c-.183.231-.386.461.162-.23.083-.046.167-.094.252-.146a2.56,2.56,0,0,1-.441,4.072.993.993,0,0,0-.032-.122l-.106-.32-.275.19a1.368,1.368,0,0,1-.32.154A4.787,4.787,0,0,1,22.4,8.092Zm-5.1,2.863c1.379.334,2.465,1.462,3.964,1.327a6.171,6.171,0,0,0,.63-.137,1.477,1.477,0,0,1-1.155,1.2,4.555,4.555,0,0,1-2.228-.291l-.136-.04a3.607,3.607,0,0,0-3.138.153c-.022-.115-.044-.23-.067-.345h0a.116.116,0,0,1,0-.018h0c0-.012-.005-.024-.007-.036h0c-.037-.181-.079-.362-.12-.542h0v0c-.013-.059-.025-.122-.04-.181h0l-.009-.035h0c-.006-.025-.013-.05-.019-.075l0-.012h0c-.042-.172-.086-.345-.134-.516A3.18,3.18,0,0,1,17.3,10.955Zm-2.12,6.068c-.2.061-.407.12-.612.167a9.8,9.8,0,0,1-5.043-.167,5.585,5.585,0,0,1,.048-.721.038.038,0,0,0,0-.011c.039-.509.1-1.017.16-1.524a8.267,8.267,0,0,0,5.237,0c.064.506.119,1.014.16,1.523v.01C15.147,16.537,15.161,16.78,15.176,17.023ZM14.828,6.815a1.988,1.988,0,0,1,.074.3,2.052,2.052,0,0,1-.883,2.194c-.035-.065-.07-.128-.106-.188l-.063-.1c-.057-.09-.118-.18-.181-.266l-.031-.042c-.065-.085-.132-.162-.2-.233l-.1-.1c-.042-.035-.084-.071-.125-.109l-.031-.025-.02-.016a1.115,1.115,0,0,0-.093-.065l-.059-.037c-.039-.024-.079-.045-.12-.066h0l-.016-.007A5.545,5.545,0,0,0,14.828,6.815Zm-5,1.389a1.963,1.963,0,0,1-.092-.66,4.942,4.942,0,0,1,.128-.729,5.574,5.574,0,0,0,1.961,1.234c-.139-.043-.508.369-.586.45a7.459,7.459,0,0,0-.57.8A2.225,2.225,0,0,1,9.832,8.2Zm.11,5.173c.063-.354.133-.707.216-1.056l.009-.035.054-.231c.1-.393.206-.782.334-1.165l0-.005h0l.064-.179h0q.093-.266.2-.524h0l0-.005.2-.447c.045-.09.093-.176.142-.263l.02-.036.081-.138c.052-.082.1-.16.176-.258h0a.38.38,0,0,1,.041-.049h0c.044-.055.088-.108.133-.156l.041-.041h0l.215-.181c.026-.017.051-.035.073-.047l.244-.1a.563.563,0,0,1,.3,0l.241.1c.025.014.051.032.076.049l.257.22h0c.055.062.109.126.161.19h0l.03.042c.053.073.107.151.158.233h0v0l.1.176c.08.14.153.283.221.43l.194.45.008.02h0c.042.106.083.22.124.335l.008.022.06.168h0c.066.2.126.4.183.6l.048.178c.034.122.067.245.1.374l.07.3c.027.12.054.241.08.366l0,.011c.05.235.1.471.137.708l.057.324c.027.161.051.328.075.493a7.727,7.727,0,0,1-5.1,0c.024-.165.048-.332.075-.493ZM.92,4.839l-.041.136c.008-.027.022-.07.041-.136.153-.509.215-.712.225-.745l-.224.744a6.111,6.111,0,0,1,2.659-3A6.171,6.171,0,0,1,7.265.564a3.886,3.886,0,0,0-1.4,2.017c-.146.96.9,1.26,1.635,1.335A7.255,7.255,0,0,1,6.112,6.911C4.975,8.252,3.38,8.081,2,7.185H2l-.149-.095h0A1.958,1.958,0,0,1,.92,4.839ZM.871,5Zm.2,4.981c-.028-.123-.02-.089,0,0Zm.079.34s0,.005,0,.006S1.148,10.328,1.148,10.325Zm1.315,1.02-.105.322a.978.978,0,0,0-.032.121,2.58,2.58,0,0,1-1.214-1.616,2.648,2.648,0,0,1,.774-2.456c.084.052.169.1.252.146A4.783,4.783,0,0,1,3.06,11.69a1.339,1.339,0,0,1-.321-.155Zm5.511,1.377a5.964,5.964,0,0,0-1.648.3l-.137.04a4.553,4.553,0,0,1-2.228.291,1.473,1.473,0,0,1-1.154-1.2,6.171,6.171,0,0,0,.63.137c1.242.113,2.233-.638,3.317-1.1a3.237,3.237,0,0,1,3.115.229c-.056.2-.108.4-.158.6l0,.013h0a.184.184,0,0,1-.005.025h0l-.005.022c-.056.233-.108.469-.155.7h0q-.04.2-.078.4A2.649,2.649,0,0,0,7.974,12.722Zm1.517,4.855,0-.025a10.315,10.315,0,0,0,5.711,0v.025c.034.753.047,1.508.031,2.262a10.422,10.422,0,0,1-5.775,0C9.444,19.085,9.458,18.33,9.491,17.577Zm.222,6.072c-.08-.646-.138-1.3-.181-1.945h0l-.007-.1v0h0q-.03-.486-.046-.972h0v0h0l-.009-.249a10.96,10.96,0,0,0,5.757,0v.015l-.009.233v0c-.008.325-.025.652-.046.977h0a0,0,0,0,0,0,0h0l-.008.1h0c-.043.65-.1,1.3-.18,1.945a7.963,7.963,0,0,1-4.56.209A4.275,4.275,0,0,1,9.713,23.649Zm.43,2.52v0c-.149-.646-.262-1.3-.355-1.955a8.568,8.568,0,0,0,5.123,0c-.125.88-.32,1.748-.522,2.613-.149.068-.3.132-.458.185a4.9,4.9,0,0,1-3.623-.186C10.25,26.61,10.194,26.4,10.143,26.169Zm.344,1.283c.015.006.029.009.044.014a5.387,5.387,0,0,0,3.678-.014c-.237.751-.882,2.853-1.983,2.647C11.233,29.913,10.741,28.255,10.487,27.452Zm2.565,4.64a1.422,1.422,0,0,1-1.369-1.428,1.453,1.453,0,0,1,.018-.229c.9.527,1.718-.2,2.179-.953a1.426,1.426,0,0,1,.615,1.35A1.938,1.938,0,0,0,13.052,32.092Zm2.822,1.616a1.387,1.387,0,0,1-1.016.446,1.427,1.427,0,0,1-.127-2.841l.139-.013a1.406,1.406,0,0,1,1.236.76A1.943,1.943,0,0,0,15.874,33.708Zm1.814.83a1.424,1.424,0,0,1-1.263-2.02,1.4,1.4,0,0,1,2.316-.323,1.892,1.892,0,0,0,.3,1.284A1.4,1.4,0,0,1,17.688,34.538Zm2.881-.738a1.372,1.372,0,0,1-1.28-1.757,1.343,1.343,0,0,1,1.979-.75,1.938,1.938,0,0,0,.633,1.286A1.352,1.352,0,0,1,20.569,33.8Zm2.582-1.244a1.4,1.4,0,0,1,.118-2.792,1.873,1.873,0,0,0,1.264,1.451A1.392,1.392,0,0,1,23.151,32.556Zm1.922-1.767a1.352,1.352,0,0,1-1.325-1.265v0l-.007-.109a1.344,1.344,0,0,1,1.236-1.318,1.87,1.87,0,0,0,1.407,1.112A1.351,1.351,0,0,1,25.073,30.789ZM26.7,28.725l-.1-.007a1.354,1.354,0,0,1-1.205-.952h0a1.363,1.363,0,0,1,.723-1.643,1.794,1.794,0,0,0,1.8.708A1.373,1.373,0,0,1,26.7,28.725Zm1.268-2.437a1.3,1.3,0,0,1-1.536-.6v0a1.334,1.334,0,0,1,.436-1.771,1.767,1.767,0,0,0,1.772.36A1.333,1.333,0,0,1,27.972,26.288Zm.637-2.552a1.261,1.261,0,0,1-1.5-.306l0,0a1.3,1.3,0,0,1,.352-1.979c0,.082,0,.164,0,.245l0,.189.18.052a2.167,2.167,0,0,0,1.434-.126A1.3,1.3,0,0,1,28.609,23.736Zm1.25-3.221c-.066.1-.045.068,0,0a2.069,2.069,0,0,1-1.9.964,11.165,11.165,0,0,1,.694-3.825,1.841,1.841,0,0,0,1.632-.542,4.242,4.242,0,0,1-.426,3.4C29.951,20.378,30.135,20.1,29.859,20.515Zm.629-4.954a1.848,1.848,0,0,1-1.056,1.526,1.236,1.236,0,0,1-1.62-.713c-.354-1.286,1.31-2.47.493-3.792C29.673,12.5,30.6,14.391,30.488,15.561Z" transform="translate(-0.001 -0.03)" fill="#5e3d9f" fill-rule="evenodd"/>
</svg>
