<svg xmlns="http://www.w3.org/2000/svg" width="30.999" height="34.999" viewBox="0 0 30.999 34.999">
  <path id="h9" d="M29.684,12.877c.867-1.381,1.629-3.379.416-4.8A14.594,14.594,0,0,1,28.452,6.15a2.956,2.956,0,0,1-.088-1.962l.136-.867-.572.66a4.714,4.714,0,0,0-.681,1.146L20.685,10.75a4.269,4.269,0,0,0-.908-2.087,5.1,5.1,0,0,0-2.112-.792l-.005,0a1.3,1.3,0,0,1-.924-.73,6.539,6.539,0,0,0,1.846-.82l.117-.075V6.105a2.314,2.314,0,0,0-.5-1.528A3.524,3.524,0,0,0,18.252,2.6a3.115,3.115,0,0,0,.326-.172l.182-.112-.078-.2A3.578,3.578,0,0,0,17.178.4c-1.5-.863-3.259-.2-4.595.67l-.133.087.019.159c0,.033.391,3.344-1.37,3.941l-.4.136.312.292a6.785,6.785,0,0,0,4.079,1.644,2.121,2.121,0,0,1-.5,1.04c-.217.237-.714.214-1,.285a3.771,3.771,0,0,0-2.281,1.516,21.828,21.828,0,0,0-1.971,2.489c-.55.812-.656,1.966.426,2.371a5.7,5.7,0,0,0,1.571.222q1.392.107,2.786.163a8.777,8.777,0,0,1-.206,1.623,4.664,4.664,0,0,1-1.686.741,6.953,6.953,0,0,1-2.011-.042,6.812,6.812,0,0,0-3.629.124,4.241,4.241,0,0,0-4.229-.976A3.593,3.593,0,0,0,.134,19.2,3.484,3.484,0,0,0,1.59,23.051a2.071,2.071,0,0,1,1.055,1.258.634.634,0,0,1-1.1.57L1.125,24.5l0,.571a1.82,1.82,0,0,0,1.91,1.817h0A2.107,2.107,0,0,0,4.761,25.9a2.453,2.453,0,0,0,0-2.392,5.634,5.634,0,0,1-.88-2.413,2.017,2.017,0,0,1,1.274-1.808A5.853,5.853,0,0,0,4.98,22.44l.036.223a7.01,7.01,0,0,1,.094,2.911c-.258.969-1.163,1.593-1.223,2.636-.053.905.313,1.761.217,2.674-.083.779-.192,1.554-.3,2.329l-.159.006v1.694l2.6.087-.1-.873a1.062,1.062,0,0,0-.5-.788,32.25,32.25,0,0,1,.6-4,7.982,7.982,0,0,1,1.3-3.434,6.505,6.505,0,0,0-.7,3.735l.325,3.693v1.575l2.6.087-.1-.873a1.062,1.062,0,0,0-.5-.786A8.592,8.592,0,0,1,9,28.021c.753-2.166,3.087-3.253,3.709-5.488.144-.019.289-.038.429-.067a2.071,2.071,0,0,0,.8,1.9,4.005,4.005,0,0,0,2.485.5A7.152,7.152,0,0,1,14.465,27.2l-1.508,0-.087,2.638.836-.1a1.09,1.09,0,0,0,.93-.822,10.356,10.356,0,0,0,3.354-2.945,5.244,5.244,0,0,0,1.064-2.006c.153-.867-.51-1.307-1.192-1.609.124-.018.257-.033.381-.046l1.93.45c.444.1.877.262.831.808a3.74,3.74,0,0,1-.526,1.344,9.129,9.129,0,0,1-2.021,2.617h-1.34l-.087,2.64.836-.1a1.089,1.089,0,0,0,.861-.645,11.372,11.372,0,0,0,2.28-2.05,13.441,13.441,0,0,0,2.37-3.772c.563-1.317.447-2.9-1.089-3.406-1.355-.45-3.473-.053-3.692-1.994l0-.217h0l0-.182v-.041c-.016-.93.011-1.766.041-2.573l8.48,6.479a4.788,4.788,0,0,0,.818,1.53l.572.66L28.364,23a3.255,3.255,0,0,1,.012-1.815,7.509,7.509,0,0,1,1.369-1.667,3.156,3.156,0,0,0,.984-2.489,5.931,5.931,0,0,0-.876-2.44l1.146-.8ZM14.167,28.722h0a.591.591,0,0,1-.517.513l-.258.029.05-1.558h.7l.031.915A.682.682,0,0,1,14.167,28.722Zm4.135.447h0a.593.593,0,0,1-.491.4l-.259.029.052-1.558h.7l.031.915A.6.6,0,0,1,18.3,29.169ZM27.749,5.2c-.027.952.287,1.337,1.124,2.254a6.321,6.321,0,0,1,1.149,1.416,2.646,2.646,0,0,1,.131,1.683,7.222,7.222,0,0,1-1.478,2.876l-.122.155h-1.1v-.228c.045-.041.089-.084.133-.125A3.516,3.516,0,0,0,28.761,9.25c-.272-.8-.966-1.33-1.213-2.119A2.7,2.7,0,0,1,27.749,5.2ZM29.5,13.589a1.543,1.543,0,0,0-.072-.327c.075-.109.156-.229.241-.364v.691Zm.169.415v.286c-.064-.1-.126-.195-.188-.286Zm-2.635.131a5.266,5.266,0,0,1,.467.466,12.519,12.519,0,0,1-6.81-.6h6.255v.055Zm-.009-8.307a2.851,2.851,0,0,0,.148,1.738c.278.638.823,1.087,1.073,1.747A3.014,3.014,0,0,1,27.32,12.8a12.517,12.517,0,0,1-1.85.034,11.671,11.671,0,0,1-2.022-.027,3.237,3.237,0,0,1-2.572-1.556Zm-.079,7.495v.266h-7a3.677,3.677,0,0,1-.433-.342c.03.029.089.084,0,0-.019-.018-.014-.014,0,0-.063-.06-.126-.122-.184-.188l-.054-.066-.017-.02h0l-.016-.019a1.181,1.181,0,0,1-.116-.148l1.37-1.209C21.775,13.921,24.817,13.227,26.948,13.323Zm-8.033.031.035.043c.057.062.118.124.187.192h-.456c0-.136.005-.27.007-.406l.051-.045c.037.049.076.1.115.143l.043.039-.006.006ZM11.654,5.562c1.5-.895,1.389-3.46,1.33-4.142A4.368,4.368,0,0,1,16.355.6,2.942,2.942,0,0,1,18.12,2.1a3.148,3.148,0,0,1-3.161-.255L14.63,1.6l-.064.405A4.2,4.2,0,0,0,14.6,4.45a1.59,1.59,0,0,0,2.058.886c.292-.123.912-.638,1.218-.376a1.5,1.5,0,0,1,.318,1,5.644,5.644,0,0,1-2.82.866h-.1A6.269,6.269,0,0,1,11.654,5.562ZM17.739,4.38l-.193.015c-.558.093-1.009.614-1.593.577-.414-.027-.722-.447-.917-.772a3.69,3.69,0,0,1-.029-1.738,3.675,3.675,0,0,0,2.778.317A3.052,3.052,0,0,1,17.739,4.38ZM14.955,8.72c.283-.309.047-.052,0,0A2.647,2.647,0,0,0,15.6,7.331a5.956,5.956,0,0,0,.639-.076,1.753,1.753,0,0,0,1.21,1.081,3.528,3.528,0,0,1,.838,3.506l-.079.311c-.017.244-.015.491-.019.735l-.49.42a7.907,7.907,0,0,0-1.377-.087l-1.884-.074a7.76,7.76,0,0,0-.378-1.3,2.018,2.018,0,0,0,.987-.967,1.832,1.832,0,0,0-.36-1.97.881.881,0,0,0,.265-.193C14.946,8.73,14.943,8.734,14.955,8.72Zm-.462,7.955a9.452,9.452,0,0,0,.137-1.233c.746.028,1.493.048,2.239.056H17a2.129,2.129,0,0,0,1.129-.236c-.027.725-.05,1.476-.041,2.3-1.274.2-2.559.387-3.67-.442.006-.027.009-.055.014-.081l.079-.373Zm3.6-2.546L17.931,14h.058s0,0,0,0A.67.67,0,0,1,18.092,14.129Zm-8.65.027Zm3.235.682c-.722-.043-1.449-.08-2.169-.161-.444-.051-1-.168-1.1-.692a1.736,1.736,0,0,1,.5-1.272c.37-.518.763-1.02,1.169-1.51.685-.825,1.553-2.049,2.738-2.049h.055c.622,0,.837.58.791,1.133a1.42,1.42,0,0,1-.99,1.182l-.3.068.008.017a3.424,3.424,0,0,0-1.362.831c-.335.345-.579,1.152.167,1.184l1.832.073h0l.2.008.093,0,.222.009h0c.963.037,1.914.074,2.624.1v0l-.19.163L18,14.715a1.356,1.356,0,0,1-1,.274h-.123C15.474,14.975,14.074,14.921,12.677,14.838Zm1.239-1.711-1.7-.068-.034-.064a1.485,1.485,0,0,1,.131-.173,2.907,2.907,0,0,1,1.275-.8A6.9,6.9,0,0,1,13.916,13.127ZM4.349,19.158c.072-.056.106-.082,0,0-.453.355-.15.117,0,0A2.587,2.587,0,0,0,3.4,20.838a3.923,3.923,0,0,0,.616,2.294,2.9,2.9,0,0,1,.5,2.091,1.632,1.632,0,0,1-1.487,1.151v.254l0-.254a1.359,1.359,0,0,1-1.33-.816,1.08,1.08,0,0,0,1.444-.872,1.821,1.821,0,0,0-.394-1.294c-.422-.564-1.09-.816-1.538-1.354A3.064,3.064,0,0,1,.48,20.271a2.984,2.984,0,0,1,1.781-2.785,3.762,3.762,0,0,1,3.853.616,2.348,2.348,0,0,0-.6.568A2.456,2.456,0,0,0,4.349,19.158Zm1.3,15.026.032.288-1.537-.051v-.71l.947-.034A.572.572,0,0,1,5.652,34.184Zm3.525,0,.032.288-1.537-.051v-.71l.947-.034A.576.576,0,0,1,9.177,34.184Zm2.086-10.045c-.094.113-.06.072,0,0-1.079,1.3-2.351,2.34-2.836,4.034A9.151,9.151,0,0,0,8.6,33.169H8.582l-.92.032-.317-3.6A5.56,5.56,0,0,1,7.7,26.775c.362-.846.86-1.625,1.187-2.488a5.687,5.687,0,0,0,1.05-1.865,11.664,11.664,0,0,0,2.238.167,5.055,5.055,0,0,1-.908,1.549C11.364,24.017,11.527,23.82,11.263,24.139Zm7.414-4.513c.9.959,2.334.68,3.471,1.069,1.167.4,1.234,1.587.818,2.6a13.508,13.508,0,0,1-4.137,5.451l-.029-.834a9.754,9.754,0,0,0,2.255-3.014,2.72,2.72,0,0,0,.433-1.667c-.118-.609-.668-.836-1.2-.961L18.276,21.8l-.04,0c-.274.026-1.19,0-1.287.4-.177.723,1.83.616,1.6,1.711a6.12,6.12,0,0,1-1.526,2.452,9.837,9.837,0,0,1-2.361,1.957l-.021-.613a7.7,7.7,0,0,0,1.61-1.629c.258-.353,1.2-1.656.187-1.723-.721-.047-1.624.117-2.218-.4-.416-.364-.913-1.2-.421-1.7l.342-.43a13.985,13.985,0,0,1-4.36.06l-.228-.033L9.5,22.08c-.433,1.882-2.3,2.989-3.073,4.7a13.415,13.415,0,0,0-.778,3.008,30.09,30.09,0,0,0-.5,3.382.634.634,0,0,0-.1,0l-.745.026c.109-.786.222-1.572.3-2.362.094-.951-.383-1.908-.195-2.84a3.127,3.127,0,0,1,.614-1.129,3.6,3.6,0,0,0,.607-1.356,8.094,8.094,0,0,0-.129-2.929l-.036-.222a5.385,5.385,0,0,1,.1-2.773,2.452,2.452,0,0,1,2.193-1.5,20.179,20.179,0,0,1,3.252.25,4.994,4.994,0,0,0,3.087-.808,4.92,4.92,0,0,0,3.988.555l0,.167A2.294,2.294,0,0,0,18.677,19.626Zm-.372-11.07a2.444,2.444,0,0,1,1.134.483c-.074-.068-.133-.123,0,0,.2.183.091.083,0,0,.548.5.6,1.388.836,2.059l-1.44,1.234c-.04-.077-.074-.159-.107-.24l.034-.08A3.358,3.358,0,0,0,18.305,8.556Zm8.67,12.5-8.322-6.486,0-.064h0a.874.874,0,0,0,.007-.217h0c0-.082.006-.181.009-.281h.98c2.343,1.624,5.555,1.425,8.221,1.06a2.989,2.989,0,0,1,.471,2.625,8.325,8.325,0,0,1-1.011,1.624A2.767,2.767,0,0,0,26.975,21.053Zm2.746-2.277c-.712.832-1.882,1.7-1.967,2.885l-.181-.142a2.488,2.488,0,0,1-.024-1.467,8.825,8.825,0,0,1,.983-1.559,3.426,3.426,0,0,0-.119-3.5l.033,0-.256-.347A5.556,5.556,0,0,0,27.629,14h1.236C29.783,15.256,30.942,17.346,29.721,18.776Z" transform="translate(0 -0.001)" fill="#5e3d9f" fill-rule="evenodd"/>
</svg>
